<svg width="268" height="140" viewBox="0 0 268 140" fill="none" xmlns="http://www.w3.org/2000/svg">
<path d="M147.568 58.2169C147.688 57.9983 147.715 57.7411 147.645 57.5019C147.575 57.2627 147.413 57.0611 147.195 56.9415C146.976 56.8219 146.719 56.794 146.48 56.864C146.24 56.934 146.039 57.0961 145.919 57.3148C145.919 57.3148 145.919 57.3148 145.919 57.3148C144.74 59.4688 143.84 61.771 143.216 64.1369C140.21 75.8707 143.459 88.0188 148.375 98.5568C148.42 98.6537 148.466 98.7507 148.512 98.8477C149.786 101.742 152.35 104.278 155.347 105.383C155.473 105.433 155.6 105.482 155.727 105.53C158.898 106.876 163.124 106.045 165.491 103.491C165.605 103.378 165.715 103.266 165.826 103.147L166.035 102.925L166.101 102.628C171.02 78.4299 166.336 53.5856 158.037 30.856C157.941 30.6109 157.843 30.3713 157.745 30.1372L157.753 30.157C157.666 29.9278 157.588 29.7225 157.51 29.5054C157.464 29.3775 157.417 29.2441 157.38 29.1215C157.364 29.0726 157.348 28.9869 157.35 29.0286C157.35 29.0315 157.351 29.0555 157.347 29.0953C157.345 29.1159 157.341 29.1421 157.331 29.1773C157.314 29.2212 157.331 29.2243 157.242 29.3632C157.168 29.4818 156.958 29.6107 156.788 29.6101C156.594 29.6082 156.591 29.5833 156.532 29.565C156.442 29.5249 156.411 29.4937 156.391 29.4765C156.349 29.4352 156.37 29.4516 156.38 29.4639C156.509 29.6246 156.677 29.8998 156.825 30.1409C157.127 30.6377 157.426 31.1509 157.724 31.6647C158.317 32.6908 158.906 33.7261 159.481 34.7672C159.519 34.8365 159.585 34.8884 159.662 34.9124C159.739 34.9364 159.821 34.9304 159.892 34.895C159.962 34.8597 160.017 34.7975 160.044 34.7214C160.071 34.6454 160.069 34.5616 160.036 34.4894C160.036 34.4894 160.036 34.4894 160.036 34.4894C159.547 33.405 159.074 32.3117 158.585 31.2232C158.339 30.6771 158.092 30.134 157.823 29.5911C157.682 29.3134 157.567 29.0642 157.349 28.7384C157.321 28.6998 157.282 28.6414 157.198 28.5629C157.158 28.5289 157.111 28.4862 157.006 28.44C156.939 28.4188 156.932 28.3919 156.727 28.3899C156.547 28.3898 156.329 28.5233 156.248 28.6507C156.152 28.8011 156.169 28.8077 156.149 28.8594C156.138 28.9018 156.133 28.9364 156.129 28.9664C156.122 29.0224 156.125 29.0817 156.125 29.0937C156.138 29.2776 156.16 29.3442 156.179 29.4336C156.22 29.6097 156.263 29.7556 156.305 29.8997C156.377 30.1401 156.448 30.3569 156.529 30.5968L156.537 30.6165C156.624 30.8505 156.714 31.0889 156.806 31.3316C164.724 53.9245 168.732 78.7022 163.928 102.143L164.204 101.623C164.113 101.72 164.023 101.811 163.931 101.902C161.978 103.92 159.112 104.499 156.487 103.478C156.374 103.436 156.262 103.394 156.151 103.351C153.544 102.387 151.395 100.602 150.21 98.0414C150.165 97.9467 150.12 97.852 150.076 97.7573C145.254 87.4512 142.186 75.6583 145.033 64.6169C145.621 62.3882 146.465 60.2313 147.568 58.2169Z" fill="white"/>
<path d="M173.774 72.1502C173.754 71.8846 173.629 71.638 173.427 71.4647C173.225 71.2913 172.962 71.2053 172.697 71.2256C172.431 71.2459 172.184 71.3709 172.011 71.5731C171.838 71.7752 171.752 72.0379 171.772 72.3035C171.772 72.3035 171.772 72.3035 171.772 72.3035C171.912 74.1378 172.056 75.9907 172.204 77.8283C172.805 85.1604 173.438 92.4888 174.425 99.8092C174.425 99.8098 174.425 99.8104 174.425 99.8109C174.509 100.422 174.52 101.051 174.524 101.692C174.525 101.77 174.526 101.855 174.527 101.939C174.528 101.988 174.528 102.025 174.533 102.096C174.537 102.126 174.533 102.117 174.547 102.203C174.552 102.228 174.557 102.258 174.575 102.322C174.585 102.355 174.597 102.397 174.628 102.467C174.636 102.477 174.676 102.614 174.862 102.806C174.96 102.902 175.127 103.041 175.408 103.106C175.685 103.178 176.034 103.102 176.227 102.979C176.62 102.719 176.64 102.538 176.694 102.446C176.735 102.347 176.745 102.297 176.755 102.257C176.78 102.142 176.778 102.124 176.782 102.09C176.79 102.007 176.79 101.989 176.793 101.962C176.808 101.763 176.817 101.611 176.826 101.448C176.844 101.117 176.855 100.802 176.855 100.475C176.855 100.391 176.855 100.302 176.855 100.209C176.987 89.4688 177.114 78.3442 180.265 68.3139C180.291 68.2426 180.317 68.1722 180.343 68.1025C180.446 67.8228 180.594 67.6218 180.692 67.5535C180.792 67.4901 180.804 67.4825 180.969 67.5102C181.308 67.5708 181.904 68.05 182.349 68.623C183.278 69.7985 183.972 71.324 184.548 72.8693C184.57 72.9294 184.592 72.9899 184.614 73.051C187.42 81.2087 189.62 89.8875 192.365 98.3287C192.384 98.3819 192.402 98.4346 192.421 98.4868C192.813 99.5819 193.24 100.647 193.857 101.661C194.358 102.453 195.012 103.333 196.099 103.599C197.201 103.837 198.146 103.294 198.956 102.902C199.038 102.861 199.099 102.79 199.128 102.703C199.157 102.617 199.15 102.523 199.11 102.442C199.069 102.36 198.998 102.299 198.911 102.27C198.825 102.241 198.731 102.248 198.65 102.288C198.65 102.288 198.65 102.288 198.65 102.288C197.835 102.697 197.005 103.11 196.252 102.93C195.499 102.761 194.9 102.045 194.441 101.301C193.869 100.363 193.449 99.3271 193.067 98.2578C193.049 98.2067 193.031 98.1551 193.012 98.103C190.283 89.7187 189.8 80.8034 186.889 72.2271C186.865 72.1606 186.841 72.0947 186.817 72.0293C186.179 70.3386 185.428 68.663 184.186 67.1252C183.542 66.3854 182.823 65.5632 181.45 65.2249C180.775 65.0613 179.854 65.2339 179.274 65.7132C178.682 66.1801 178.38 66.7521 178.175 67.2841C178.146 67.3618 178.117 67.4401 178.088 67.519C174.719 78.3148 174.634 89.2958 174.476 100.209C174.476 100.302 174.476 100.391 174.476 100.476C174.476 100.803 174.488 101.12 174.505 101.446C174.514 101.599 174.524 101.777 174.532 101.901C174.533 101.908 174.533 101.938 174.537 101.894C174.541 101.872 174.537 101.862 174.561 101.754C174.57 101.715 174.58 101.667 174.62 101.569C174.674 101.478 174.694 101.298 175.086 101.038C175.279 100.915 175.627 100.84 175.905 100.911C176.185 100.977 176.352 101.115 176.45 101.211C176.636 101.402 176.674 101.538 176.682 101.548C176.713 101.617 176.725 101.657 176.734 101.688C176.751 101.748 176.755 101.774 176.759 101.793C176.768 101.852 176.763 101.834 176.764 101.839C176.76 101.83 176.753 101.79 176.747 101.752C176.736 101.681 176.723 101.596 176.711 101.518C176.614 100.869 176.507 100.208 176.414 99.5366C176.414 99.536 176.414 99.5355 176.414 99.5349C175.439 92.2988 174.805 84.9797 174.206 77.6668C174.058 75.833 173.915 73.9836 173.774 72.1502Z" fill="white"/>
<path d="M221.363 70.8663C221.593 70.8376 221.802 70.7188 221.944 70.536C222.086 70.3532 222.15 70.1215 222.121 69.8917C222.093 69.662 221.974 69.453 221.791 69.3109C221.608 69.1687 221.376 69.105 221.147 69.1337C221.147 69.1337 221.147 69.1337 221.147 69.1337C219.147 69.3818 217.167 69.92 215.324 70.7698C211.87 72.3439 209.018 74.9957 206.86 78.0055C206.771 78.1288 206.682 78.2533 206.594 78.3792C202.843 83.7427 200.828 90.2856 200.991 96.8611C201.001 97.1802 201.016 97.4981 201.038 97.8119C201.223 100.286 203.118 101.9 204.819 102.883C205.145 103.07 205.48 103.242 205.818 103.399C209.31 105.026 213.182 103.976 216.194 102.494C216.587 102.301 216.973 102.099 217.354 101.889C225.078 96.3742 224.289 86.8305 225.081 79.209C225.112 78.7572 225.145 78.3004 225.182 77.8667C225.189 77.7835 225.197 77.7194 225.202 77.681C225.206 77.6545 225.21 77.6369 225.208 77.6473C225.184 77.6603 225.283 77.6573 224.98 78.033C224.974 78.0625 224.548 78.4136 224.116 78.3392C223.703 78.292 223.488 78.0258 223.486 78.0284C223.392 77.926 223.367 77.8718 223.349 77.8408C223.321 77.7836 223.333 77.806 223.336 77.8157C223.35 77.8572 223.364 77.905 223.384 77.9776C223.455 78.2447 223.526 78.5856 223.59 78.8965C223.721 79.5451 223.845 80.2036 223.972 80.864C224.226 82.1894 224.49 83.5196 224.789 84.8484C225.432 87.5062 225.978 90.1706 227.549 92.7953C227.655 92.9581 227.767 93.1152 227.888 93.2691C229.184 94.9961 231.491 95.6367 233.346 95.5103C233.484 95.5046 233.621 95.4949 233.757 95.4814C235.89 95.24 237.304 93.7763 238.94 92.9924C239.004 92.9605 239.069 92.9293 239.135 92.8988C239.875 92.5558 240.611 92.2039 241.345 91.8479C243.086 91.003 244.817 90.1361 246.548 89.2711C246.568 89.2607 246.584 89.2424 246.592 89.2203C246.599 89.1982 246.597 89.174 246.587 89.1532C246.576 89.1323 246.558 89.1165 246.536 89.1091C246.514 89.1017 246.49 89.1035 246.469 89.1139C246.469 89.1139 246.469 89.1139 246.469 89.1139C244.738 89.9788 243.008 90.8456 241.269 91.6897C240.535 92.0454 239.8 92.3969 239.061 92.7393C238.996 92.7698 238.93 92.7991 238.864 92.8272C237.185 93.5379 235.214 93.6904 233.666 93.6556C233.562 93.6541 233.459 93.6498 233.357 93.6426C231.781 93.5498 230.448 92.9878 229.622 91.905C229.543 91.8043 229.468 91.7 229.396 91.5899C228.185 89.6059 227.525 86.9085 226.917 84.3632C226.62 83.0721 226.354 81.7678 226.095 80.4509C225.965 79.7932 225.839 79.1372 225.698 78.462C225.629 78.133 225.557 77.7864 225.457 77.4156C225.426 77.3049 225.411 77.2442 225.357 77.0909C225.326 77.0107 225.329 77.0002 225.246 76.8363C225.206 76.7627 225.159 76.6758 225.044 76.5514C225.038 76.5483 224.789 76.2528 224.358 76.2066C223.907 76.1278 223.453 76.4983 223.443 76.5351C223.099 76.9467 223.158 77.0783 223.123 77.1428C223.103 77.224 223.09 77.3038 223.08 77.3721C223.065 77.4715 223.055 77.5747 223.045 77.6893C223.009 78.1423 222.977 78.6092 222.947 79.0668C222.353 86.6702 222.42 95.9999 216.358 100.092C216.006 100.288 215.65 100.476 215.291 100.652C212.508 102.038 209.292 102.796 206.671 101.553C206.385 101.421 206.103 101.276 205.831 101.12C204.369 100.29 203.143 99.0413 203.077 97.6745C203.058 97.3862 203.044 97.093 203.035 96.7978C202.877 90.7021 204.505 84.4331 208.026 79.3789C208.109 79.2602 208.192 79.1429 208.276 79.0271C210.308 76.1952 212.925 73.7828 216.054 72.3562C217.726 71.5855 219.523 71.0949 221.363 70.8663Z" fill="white"/>
<path d="M61.1869 56.3051C61.2767 56.1238 61.2908 55.9141 61.226 55.7223C61.1613 55.5306 61.023 55.3724 60.8416 55.2826C60.6602 55.1928 60.4506 55.1787 60.2588 55.2434C60.067 55.3082 59.9088 55.4465 59.819 55.6279C58.9537 60.2791 58.8423 64.1466 58.4199 68.4004C58.0103 73.1439 57.62 77.8624 57.2264 82.6072C57.2237 82.6392 57.2211 82.6712 57.2184 82.7033C56.9562 85.4469 56.7679 88.2622 55.7408 90.6633C55.7262 90.6986 55.7114 90.7341 55.6966 90.7696C55.5746 91.062 55.4454 91.3567 55.3183 91.5878C55.2873 91.6437 55.256 91.6949 55.2342 91.7249C55.228 91.7501 55.1509 91.7742 55.3462 91.6466C55.4023 91.6169 55.5029 91.5728 55.6488 91.5709C55.7957 91.5666 55.9541 91.6271 56.0382 91.6874C56.2075 91.8133 56.2092 91.8697 56.2256 91.8895C56.2431 91.9278 56.2235 91.8814 56.2143 91.8352C56.2124 91.8266 56.2103 91.8172 56.2083 91.8072C55.6773 86.1762 57.8382 80.0396 59.376 74.2323C59.3836 74.2057 59.3913 74.179 59.399 74.1523C61.7757 65.8284 65.8244 58.0695 70.531 50.7819C70.5572 50.7412 70.5834 50.7006 70.6096 50.6599C75.4477 43.1764 82.484 36.972 90.744 33.7042C90.7682 33.6949 90.7923 33.6857 90.8163 33.6764C93.4916 32.6643 96.6705 32.5034 99.2427 33.584C99.2489 33.5867 99.2551 33.5895 99.2614 33.5923C101.383 34.4711 102.327 36.9783 102.821 39.4579C102.823 39.4658 102.825 39.4736 102.826 39.4815C103.708 43.6119 103.225 47.9201 102.01 52.0115C102.003 52.0341 101.996 52.0567 101.99 52.0794C99.9286 58.7617 96.6604 65.1225 92.898 71.0706C92.8767 71.1038 92.8554 71.1369 92.8342 71.1699C89.0708 77.0973 84.3289 82.3072 79.1614 87.0635C79.1311 87.0917 79.1007 87.1198 79.0703 87.148C73.1745 92.5797 66.9199 97.6526 60.467 102.417C60.4438 102.434 60.4206 102.451 60.3974 102.468C52.9262 107.946 44.8876 112.672 36.286 115.99C36.2843 115.99 36.2827 115.991 36.281 115.992C35.0289 116.474 33.7447 116.853 32.4596 117.022C31.8675 117.1 31.2751 117.131 30.6996 117.099C30.6888 117.098 30.678 117.098 30.6674 117.097C30.142 117.058 29.6885 117.195 29.1914 117.066C28.6897 116.947 28.2143 116.398 28.1154 115.796C28.1141 115.789 28.1129 115.782 28.1117 115.775C27.8295 113.484 28.2747 111.182 28.5452 108.901C28.5458 108.897 28.5446 108.892 28.5417 108.888C28.5389 108.885 28.5347 108.882 28.5301 108.882C28.5255 108.881 28.5208 108.882 28.5171 108.885C28.5134 108.888 28.511 108.892 28.5104 108.897C28.5104 108.897 28.5104 108.897 28.5104 108.897C28.2401 111.178 27.7937 113.477 28.0771 115.781C28.0782 115.788 28.0794 115.795 28.0806 115.802C28.1867 116.398 28.1514 117.079 28.6011 117.76C29.0487 118.438 29.8691 118.829 30.5538 118.869C30.568 118.87 30.5823 118.87 30.5966 118.871C31.3047 118.913 32.0052 118.876 32.6883 118.789C34.1698 118.596 35.5768 118.177 36.9248 117.659C36.9266 117.658 36.9284 117.657 36.9302 117.657C45.7273 114.263 53.816 109.312 61.3214 103.717C61.3446 103.7 61.3678 103.682 61.3911 103.665C67.8554 98.8119 74.1022 93.6828 80.0071 88.1506C80.0376 88.1219 80.068 88.0932 80.0984 88.0645C85.2733 83.2216 90.0001 77.8049 93.81 71.7975C93.8315 71.764 93.8531 71.7304 93.8746 71.6968C97.6865 65.664 101.074 59.3327 103.268 52.4642C103.275 52.4409 103.282 52.4176 103.29 52.3943C104.585 48.1919 105.177 43.6103 104.298 39.1939C104.296 39.1856 104.295 39.1772 104.293 39.1689C103.814 36.6205 102.869 33.4015 99.9423 32.0935C99.9345 32.0899 99.9267 32.0863 99.9189 32.0828C96.7589 30.7362 93.2941 30.9169 90.1981 32.0623C90.1727 32.072 90.1472 32.0818 90.1217 32.0916C81.4349 35.5345 74.1952 41.9758 69.1882 49.7444C69.1618 49.7856 69.1353 49.8268 69.1089 49.868C64.3614 57.2538 60.3289 65.2138 57.901 73.722C57.8932 73.7488 57.8855 73.7756 57.8779 73.8024C56.3498 79.7397 54.0802 85.4937 54.6704 92.1248C54.6745 92.1445 54.6787 92.164 54.6831 92.1833C54.7106 92.2952 54.7334 92.4066 54.8229 92.5917C54.875 92.682 54.9217 92.8115 55.1581 92.9838C55.2757 93.0671 55.474 93.1415 55.6617 93.1366C55.848 93.1344 55.9885 93.0769 56.0803 93.0282C56.4197 92.8176 56.4381 92.7067 56.525 92.5984C56.5945 92.4931 56.6432 92.4031 56.6887 92.3154C56.864 91.9694 56.9833 91.6617 57.1111 91.3521C57.1248 91.3185 57.139 91.284 57.1535 91.249C58.3126 88.4842 58.4649 85.6209 58.7396 82.8293C58.7422 82.7973 58.7449 82.7652 58.7476 82.7332C59.1411 77.9888 59.5314 73.271 59.9406 68.5319C60.3138 64.4435 60.6365 59.8834 61.1869 56.3051Z" fill="white"/>
<path d="M127.296 81.895C127.316 81.7182 127.265 81.5408 127.153 81.4018C127.042 81.2629 126.88 81.1738 126.704 81.1541C126.527 81.1345 126.349 81.1859 126.21 81.297C126.071 81.4082 125.982 81.57 125.963 81.7468C125.963 81.7468 125.963 81.7468 125.963 81.7468C125.792 83.3259 125.511 84.8778 125.125 86.4183C125.125 86.4197 125.124 86.421 125.124 86.4224C124.998 86.9275 124.827 87.4351 124.632 87.936C123.575 90.5814 121.998 93.0786 120.41 95.5362C120.409 95.5381 120.407 95.54 120.406 95.5419C118.842 97.9791 116.636 99.9147 114.213 101.6C114.209 101.602 114.206 101.604 114.203 101.607C111.413 103.55 107.782 104.063 104.295 104.025C104.295 104.025 104.294 104.025 104.293 104.025C102.336 104.035 100.808 102.583 99.4949 100.972C99.4918 100.968 99.4888 100.965 99.4858 100.961C97.7746 98.8747 97.2786 95.9315 97.1114 93.0718C97.1112 93.0668 97.1109 93.0618 97.1106 93.0568C96.9079 89.4363 98.3231 85.8358 100.286 82.6591C100.29 82.653 100.294 82.6468 100.297 82.6407C102.288 79.5453 106.109 77.7911 109.777 76.4136C109.789 76.409 109.801 76.4046 109.814 76.4001C110.952 75.9834 112.069 75.7903 113.259 75.9242C113.271 75.9254 113.284 75.9266 113.296 75.9279C114.054 76.0117 114.42 76.1328 114.8 76.767C114.805 76.7755 114.81 76.7841 114.815 76.7927C115.407 77.8706 115.555 79.3322 115.283 80.657C115.281 80.6687 115.278 80.6803 115.276 80.692C114.869 82.5854 113.734 84.3947 112.256 85.7928C112.247 85.8005 112.239 85.8082 112.231 85.8159C110.241 87.6821 107.736 88.9076 105.202 89.9581C105.193 89.9614 105.185 89.9648 105.177 89.9681C101.729 91.371 98.1366 92.4365 94.5473 93.4368C94.5418 93.4383 94.5364 93.4398 94.5309 93.4413C91.5696 94.2666 88.6396 95.332 85.5893 95.8974C85.5864 95.8979 85.5835 95.8985 85.5806 95.899C84.5221 96.0975 83.4632 96.2939 82.4037 96.489C80.266 96.8827 78.1269 97.2714 75.9879 97.6604C75.9704 97.6636 75.9548 97.6736 75.9446 97.6883C75.9344 97.703 75.9305 97.7211 75.9337 97.7387C75.9369 97.7563 75.947 97.7719 75.9616 97.7821C75.9763 97.7922 75.9945 97.7962 76.0121 97.793C76.0121 97.793 76.0121 97.793 76.0121 97.793C78.151 97.404 80.2902 97.0152 82.4281 96.6215C83.4877 96.4264 84.5467 96.23 85.6054 96.0315C85.6083 96.0309 85.6112 96.0304 85.6141 96.0298C88.6555 95.4679 91.798 95.2852 94.8079 94.4468C94.8134 94.4453 94.819 94.4438 94.8245 94.4423C98.4551 93.4296 102.013 92.1795 105.48 90.68C105.488 90.6764 105.496 90.6729 105.504 90.6693C108.054 89.5448 110.576 88.2026 112.648 86.2606C112.656 86.2526 112.665 86.2445 112.673 86.2365C114.202 84.7841 115.654 83.1148 116.315 80.9569C116.319 80.9436 116.323 80.9303 116.326 80.9171C116.753 79.3934 116.804 77.7372 116.133 76.1394C116.127 76.1259 116.121 76.1126 116.115 76.0992C115.784 75.1234 114.477 74.245 113.509 74.2066C113.493 74.2044 113.476 74.2022 113.46 74.2001C112.048 73.9855 110.505 74.1958 109.191 74.6873C109.177 74.6925 109.163 74.6978 109.148 74.7031C105.354 76.1585 101.251 77.8672 98.744 81.6769C98.7393 81.6844 98.7346 81.692 98.7299 81.6996C96.6607 85.0561 95.0606 88.9908 95.2882 93.1569C95.2885 93.1627 95.2888 93.1684 95.2891 93.1742C95.4791 96.1974 96.0459 99.4883 98.217 102.038C98.2208 102.042 98.2247 102.047 98.2285 102.051C99.6417 103.711 101.754 105.429 104.278 105.394C104.279 105.394 104.279 105.394 104.28 105.394C107.919 105.412 111.796 104.906 114.976 102.707C114.979 102.705 114.983 102.702 114.986 102.7C117.464 100.979 119.856 98.8988 121.535 96.2778C121.536 96.2759 121.538 96.274 121.539 96.2721C123.145 93.7814 124.746 91.2622 125.883 88.4229C126.093 87.882 126.281 87.3248 126.426 86.7473C126.426 86.7459 126.427 86.7445 126.427 86.7431C126.826 85.1538 127.12 83.5233 127.296 81.895Z" fill="white"/>
<path d="M262.356 44.0513C262.489 43.8297 262.529 43.5645 262.466 43.3138C262.403 43.0632 262.244 42.8477 262.022 42.7148C261.801 42.5819 261.535 42.5424 261.285 42.6051C261.034 42.6677 260.819 42.8274 260.686 43.0489C260.686 43.0489 260.686 43.0489 260.686 43.0489C260.059 44.1998 259.759 45.1794 259.381 46.223C256.873 53.7021 254.896 61.2332 252.89 68.8C252.89 68.801 252.889 68.8021 252.889 68.8031C250.432 78.0797 249.196 87.6599 248.692 97.1879L248.691 97.2157C248.691 97.2165 248.691 97.2173 248.691 97.2181C248.637 99.2527 248.96 101.329 249.376 103.37C249.376 103.37 249.376 103.37 249.376 103.37C249.399 103.485 249.422 103.597 249.447 103.711C249.68 104.804 250.022 105.869 250.366 106.892C250.422 107.06 250.542 107.199 250.701 107.278C250.859 107.357 251.042 107.37 251.21 107.314C251.379 107.258 251.517 107.138 251.597 106.979C251.676 106.821 251.689 106.637 251.633 106.469C251.633 106.469 251.633 106.469 251.633 106.469C251.289 105.445 250.97 104.45 250.753 103.429C250.73 103.322 250.708 103.217 250.687 103.11C250.687 103.11 250.686 103.11 250.686 103.11C250.301 101.212 250.63 99.2491 250.682 97.277C250.682 97.2763 250.682 97.2755 250.682 97.2747L250.681 97.3025C251.182 87.8386 252.355 78.4321 254.774 69.2969C254.774 69.2959 254.774 69.2948 254.775 69.2938C256.772 61.7559 258.761 54.1972 261.221 46.8628C261.566 45.8859 261.95 44.7861 262.356 44.0513Z" fill="white"/>
<path d="M249.769 115.071C249.901 114.839 249.936 114.565 249.866 114.307C249.796 114.05 249.626 113.831 249.394 113.698C249.163 113.566 248.888 113.531 248.63 113.601C248.373 113.671 248.154 113.841 248.021 114.073C248.021 114.073 248.021 114.073 248.021 114.073C247.705 114.626 247.404 115.195 247.133 115.792C246.436 117.344 245.798 119.325 246.544 121.315C246.545 121.317 246.545 121.318 246.546 121.32C247.525 123.287 249.047 123.873 250.665 124.331C250.673 124.333 250.681 124.335 250.69 124.337C252.309 124.693 253.876 124.071 255.012 123.347C255.02 123.343 255.027 123.338 255.035 123.333C256.16 122.686 257.222 121.422 257.669 120.194C257.672 120.188 257.674 120.182 257.677 120.176C258.321 118.475 258.597 116.665 258.028 114.757C258.025 114.75 258.023 114.743 258.021 114.736C257.711 113.748 256.885 112.872 255.951 112.498C255.014 112.105 254.09 112.102 253.222 112.092C253.221 112.092 253.22 112.092 253.219 112.092C250.768 112.143 248.54 112.937 246.317 113.631C245.732 113.822 245.148 114.016 244.566 114.211C244.47 114.242 244.391 114.311 244.346 114.402C244.3 114.492 244.293 114.596 244.325 114.692C244.357 114.788 244.426 114.867 244.516 114.913C244.606 114.958 244.711 114.965 244.807 114.933C244.807 114.933 244.807 114.933 244.807 114.933C245.389 114.739 245.971 114.545 246.553 114.356C248.751 113.663 250.994 112.893 253.214 112.854C253.215 112.854 253.216 112.854 253.217 112.854C254.888 112.84 255.922 114.132 256.073 115.3C256.074 115.304 256.075 115.308 256.076 115.313C256.332 116.525 256.039 118.046 255.54 119.316C255.538 119.321 255.537 119.325 255.535 119.33C255.16 120.263 254.672 120.867 253.812 121.41C253.806 121.414 253.8 121.417 253.794 121.421C252.882 122.011 251.959 122.322 251.132 122.16C251.127 122.159 251.123 122.159 251.118 122.158C250.051 121.966 248.668 121.256 248.427 120.604C248.427 120.604 248.427 120.603 248.426 120.603C247.975 119.46 248.332 118.005 248.965 116.623C249.202 116.102 249.475 115.585 249.769 115.071Z" fill="white"/>
<path d="M23.4758 121.604C23.4758 121.882 23.586 122.148 23.7822 122.344C23.9783 122.54 24.2443 122.65 24.5217 122.65C24.7991 122.65 25.0651 122.54 25.2613 122.344C25.4574 122.148 25.5676 121.882 25.5676 121.604C25.4137 120.196 25.2123 119.388 25.027 118.291C24.6263 116.081 24.221 113.889 23.8141 111.689C23.814 111.689 23.8139 111.689 23.8139 111.688C21.4534 98.9315 18.9996 86.1703 16.73 73.4135C16.7299 73.4132 16.7299 73.4129 16.7298 73.4126C16.0792 69.6265 15.191 65.8819 14.6787 62.1246C14.5445 61.091 14.4836 60.0611 14.4512 59C14.4472 58.8844 14.3961 58.7735 14.3116 58.6917C14.2269 58.61 14.1156 58.564 14 58.564C13.8844 58.564 13.7731 58.61 13.6884 58.6917C13.6039 58.7735 13.5528 58.8844 13.5488 59C13.5086 60.0571 13.4831 61.143 13.529 62.2182C13.7209 66.1208 14.2186 69.9308 14.8476 73.7379C14.8476 73.7382 14.8477 73.7385 14.8477 73.7388C17.0419 86.5364 19.3967 99.3131 21.757 112.069C21.7571 112.069 21.7572 112.07 21.7572 112.07C22.1639 114.268 22.5691 116.46 22.9686 118.664C23.1451 119.649 23.3814 120.919 23.4758 121.604Z" fill="white"/>
<path d="M13.1527 44.4268C13.2659 44.2845 13.3179 44.1031 13.2974 43.9225C13.2768 43.7418 13.1853 43.5767 13.043 43.4635C12.9007 43.3503 12.7193 43.2983 12.5387 43.3189C12.358 43.3394 12.1929 43.4309 12.0797 43.5732C12.0797 43.5732 12.0797 43.5732 12.0797 43.5732C11.6207 44.1503 11.1797 44.7445 10.7639 45.3563C9.44169 47.4525 8.00366 49.5018 8.05453 52.4872C8.05569 52.4942 8.0569 52.5012 8.05814 52.5082C8.22612 53.4 8.94399 53.8734 9.51676 54.1007C9.5236 54.1034 9.53046 54.106 9.53732 54.1086C11.6291 54.6615 13.0236 53.6769 14.4231 53.0716C14.4322 53.067 14.4413 53.0625 14.4505 53.0578C16.7402 51.8467 18.2041 49.8429 19.4502 47.8491C19.4549 47.8414 19.4596 47.8336 19.4642 47.8259C19.9914 46.9546 20.1495 45.7804 19.5542 44.7622C19.5468 44.7501 19.5392 44.738 19.5314 44.7261C19.2474 44.265 18.7068 44.001 18.295 43.9271C17.8702 43.8428 17.4979 43.8551 17.1434 43.8821L17.0865 43.8885C17.0772 43.89 17.0679 43.8916 17.0586 43.8932C13.6354 44.6435 10.8712 46.4343 8.09687 48.1637L8.08287 48.1727C8.07963 48.1749 8.07639 48.1772 8.07314 48.1794C6.83884 49.041 5.65458 49.9614 4.49216 50.8993C3.92918 51.3534 3.37106 51.8115 2.81357 52.2694C2.75305 52.3191 2.71456 52.3917 2.70596 52.4704C2.6974 52.5491 2.71942 52.6275 2.7678 52.6891C2.81619 52.7507 2.88714 52.7906 2.96567 52.8009C3.04416 52.8112 3.12379 52.791 3.18643 52.7439C3.76321 52.3106 4.33902 51.8777 4.91766 51.4503C6.11246 50.5675 7.32015 49.7093 8.56652 48.9209C8.5698 48.9188 8.57307 48.9168 8.57634 48.9147L8.56234 48.9236C11.3415 47.345 14.2955 45.7636 17.2694 45.2243C17.2771 45.2232 17.2848 45.2222 17.2925 45.2211L17.2356 45.2274C17.8276 45.184 18.3218 45.2896 18.3775 45.4667C18.3792 45.4695 18.381 45.4725 18.3827 45.4755C18.6208 45.888 18.5551 46.5687 18.2255 47.0718C18.2226 47.0764 18.2197 47.0811 18.2168 47.0857C17.032 48.952 15.5828 50.7541 13.7639 51.6979C13.7567 51.7015 13.7495 51.7051 13.7423 51.7087C12.4713 52.3373 10.949 53.0523 10.0396 52.7576C10.0367 52.7566 10.0339 52.7555 10.031 52.7545C9.66586 52.6267 9.42174 52.4214 9.40803 52.268C9.40777 52.2665 9.40752 52.2651 9.40727 52.2636C9.34838 50.3624 10.6313 48.0153 11.8979 46.127C12.2923 45.5467 12.7129 44.9796 13.1527 44.4268Z" fill="white"/>
</svg>
