<svg width="268" height="140" viewBox="0 0 268 140" fill="none" xmlns="http://www.w3.org/2000/svg">
<path d="M71.7184 42.5292C71.7184 42.9678 71.8927 43.3884 72.2028 43.6986C72.513 44.0087 72.9336 44.183 73.3723 44.183C73.8109 44.183 74.2315 44.0087 74.5417 43.6986C74.8518 43.3884 75.0261 42.9678 75.0261 42.5292C75.0261 42.4593 75.0264 42.4145 75.0274 42.358C75.0279 42.3317 75.0284 42.3156 75.029 42.303C75.0292 42.2982 75.0293 42.2993 75.0282 42.3124C75.0178 42.3339 75.0607 42.2966 74.9478 42.6766C74.9381 42.7043 74.9264 42.7354 74.9112 42.7715C74.8824 42.8014 74.8381 43.0985 74.3449 43.4751C74.0974 43.662 73.6207 43.8313 73.179 43.7646C72.7361 43.7054 72.4446 43.4971 72.2824 43.3508C71.9642 43.0423 71.9334 42.8916 71.879 42.789C71.8186 42.6424 71.8267 42.6492 71.8113 42.6021C71.7915 42.5332 71.7861 42.503 71.7818 42.4821C71.7746 42.4438 71.777 42.4545 71.7764 42.452C71.7769 42.4549 71.7802 42.4799 71.7824 42.4995C71.7879 42.5478 71.7936 42.6039 71.7992 42.6633C71.8214 42.9002 71.8422 43.1714 71.8609 43.4239C71.8994 43.9481 71.9339 44.4697 71.9678 44.9954C72.2938 50.2006 72.57 55.4442 72.8504 60.672C72.8627 60.9095 72.8752 61.1516 72.8878 61.3958C73.4101 71.3747 73.8073 81.364 74.5578 91.3701C74.5612 91.4147 74.5647 91.4592 74.5682 91.5035C74.7942 95.1008 75.7256 98.6753 76.0273 102.006C76.0723 102.977 75.9648 103.95 75.2637 104.78C75.2491 104.797 75.2386 104.819 75.2363 104.842C75.234 104.865 75.2399 104.887 75.2532 104.905C75.2665 104.923 75.2865 104.935 75.3092 104.939C75.3319 104.943 75.3553 104.939 75.3762 104.93C75.3762 104.93 75.3762 104.93 75.3762 104.93C76.4304 104.503 77.1838 103.341 77.521 102.235C78.5616 98.3982 78.2328 94.794 78.0205 91.2334C78.0171 91.1896 78.0137 91.1457 78.0102 91.1016C77.2652 81.1892 76.7129 71.2002 76.191 61.2251C76.1784 60.9808 76.1659 60.7386 76.1535 60.4987C75.8725 55.2621 75.597 50.0272 75.2686 44.7833C75.2343 44.2515 75.1995 43.7241 75.1595 43.1805C75.1399 42.9165 75.1188 42.6381 75.0922 42.3525C75.0852 42.2788 75.0782 42.2082 75.0682 42.1206C75.0638 42.083 75.0581 42.0339 75.0488 41.9702C75.0427 41.9316 75.0441 41.9333 75.0275 41.8452C75.0192 41.804 75.01 41.7574 74.9866 41.6761C74.9691 41.6221 74.9766 41.6264 74.9129 41.4716C74.8563 41.364 74.8235 41.21 74.5032 40.8996C74.3401 40.7524 74.0475 40.5437 73.6037 40.4843C73.161 40.4175 72.6834 40.5871 72.435 40.7746C72.1746 40.9631 72.0614 41.1333 71.9834 41.2543C71.9116 41.3675 71.8579 41.4997 71.8639 41.4854C71.8483 41.5225 71.8362 41.5547 71.8261 41.5834C71.7534 41.8043 71.7545 41.8683 71.7429 41.936C71.7342 42.0047 71.7334 42.0234 71.7315 42.0436C71.7283 42.0843 71.7264 42.1182 71.7248 42.1515C71.7219 42.2186 71.7214 42.245 71.7204 42.2935C71.7187 42.3885 71.7185 42.4432 71.7184 42.5292Z" fill="white"/>
<path d="M51.3554 51.0407C51.0301 51.1978 50.7804 51.4777 50.6614 51.8188C50.5424 52.16 50.5638 52.5344 50.7209 52.8598C50.8779 53.1852 51.1578 53.4348 51.499 53.5538C51.8401 53.6728 52.2146 53.6515 52.54 53.4944C52.54 53.4944 52.54 53.4944 52.54 53.4944C53.6847 52.9417 54.829 52.3893 55.9734 51.8386C64.607 47.6729 73.2787 43.6529 82.1586 40.1283C82.1586 40.1283 82.1586 40.1283 82.1587 40.1283C92.2523 36.1293 102.491 32.3492 112.854 29.0291C112.854 29.029 112.854 29.0289 112.855 29.0289C115.119 28.3097 117.377 27.5988 119.633 26.9649C120.848 26.6239 122.02 26.3326 123.257 26.0945C123.547 26.0365 123.803 25.8655 123.967 25.6192C124.131 25.3728 124.191 25.0714 124.133 24.7811C124.075 24.4908 123.904 24.2355 123.657 24.0713C123.411 23.907 123.11 23.8474 122.819 23.9055C122.819 23.9055 122.819 23.9055 122.819 23.9055C121.559 24.1473 120.267 24.4675 119.032 24.8148C116.719 25.465 114.454 26.1787 112.177 26.9018C112.177 26.9019 112.177 26.9019 112.176 26.902C101.772 30.2356 91.3439 33.5591 81.1508 37.597C81.1508 37.597 81.1508 37.597 81.1507 37.597C72.1872 41.1546 63.4399 45.2108 54.7919 49.3835C53.6455 49.9352 52.5002 50.4881 51.3554 51.0407Z" fill="white"/>
<path d="M49.4445 82.3194C49.1498 82.4668 48.9257 82.7251 48.8216 83.0377C48.7174 83.3502 48.7416 83.6913 48.889 83.986C49.0363 84.2807 49.2946 84.5047 49.6072 84.6089C49.9197 84.7131 50.2609 84.6889 50.5555 84.5415C50.5555 84.5415 50.5555 84.5415 50.5555 84.5415C51.51 84.0642 52.4586 83.5904 53.4096 83.1318C57.2859 81.2446 61.2883 79.6828 65.3962 78.3126C65.3968 78.3124 65.3974 78.3122 65.398 78.312C73.9553 75.4955 82.6371 72.7591 91.4457 70.652C91.4459 70.6519 91.4461 70.6519 91.4463 70.6518C97.0398 69.3241 102.663 68.2134 108.336 67.2626C109.386 67.0843 110.438 66.9091 111.491 66.7336C111.711 66.6968 111.908 66.5739 112.039 66.3918C112.169 66.2097 112.221 65.9834 112.184 65.7626C112.147 65.5419 112.024 65.3448 111.842 65.2147C111.66 65.0847 111.434 65.0323 111.213 65.0691C111.213 65.0691 111.213 65.0691 111.213 65.0691C110.161 65.2445 109.107 65.4201 108.054 65.5988C102.361 66.5527 96.6835 67.6741 91.0587 69.0095C91.0585 69.0095 91.0583 69.0095 91.0581 69.0096C82.2014 71.1289 73.3059 73.0949 64.6096 75.956C64.609 75.9562 64.6084 75.9564 64.6078 75.9566C60.4368 77.3471 56.2992 78.9611 52.3303 80.8941C51.3595 81.3623 50.3988 81.8422 49.4445 82.3194Z" fill="white"/>
<path d="M119.172 74.7593C119.172 75.1214 119.315 75.4687 119.571 75.7247C119.827 75.9807 120.175 76.1245 120.537 76.1245C120.899 76.1245 121.246 75.9807 121.502 75.7247C121.758 75.4687 121.902 75.1214 121.902 74.7593C121.902 74.1924 121.902 73.6246 121.902 73.0583C121.902 72.8547 121.902 72.6551 121.902 72.4512C121.902 72.3499 121.902 72.2491 121.902 72.1477C121.902 72.099 121.902 72.046 121.902 71.996C121.902 71.984 121.902 71.9707 121.902 71.9582C121.902 71.9529 121.902 71.9456 121.902 71.9391C121.902 71.9356 121.902 71.9346 121.902 71.9301C121.902 71.9278 121.902 71.9262 121.902 71.9252C121.902 71.925 121.902 71.9248 121.902 71.9246C121.902 71.9245 121.902 71.9245 121.902 71.9243C121.902 71.9243 121.902 71.9242 121.902 71.9242C121.902 71.9242 121.902 71.9242 121.902 71.9242C121.902 71.9242 121.902 71.9242 121.902 71.9242C121.902 71.9242 121.902 71.9242 121.902 71.9242C121.902 71.9242 121.902 71.9242 121.902 71.9242C121.902 71.9242 121.902 71.9242 121.902 71.9242C121.902 71.9242 121.902 71.9242 121.902 71.9242C123.419 71.9242 117.655 71.9242 119.172 71.9242C119.172 71.9242 119.172 71.9242 119.172 71.9242C119.172 71.9242 119.172 71.9242 119.172 71.9242C119.172 71.9242 119.172 71.9242 119.172 71.9242C119.172 71.9242 119.172 71.9242 119.172 71.9242C119.172 71.9241 119.172 71.926 119.172 71.9275C119.172 71.9517 119.172 71.9749 119.172 72.0033C119.172 72.0939 119.172 72.1846 119.172 72.2753C119.223 80.4949 119.438 88.665 120.468 96.9356C120.472 96.9635 120.475 96.9819 120.478 97.0002C120.716 98.4992 121.077 99.9773 121.44 101.449C121.576 102.002 121.712 102.555 121.84 103.108C121.877 103.267 121.98 103.408 122.119 103.501C122.259 103.595 122.425 103.633 122.585 103.606C122.746 103.579 122.89 103.489 122.992 103.356C123.094 103.222 123.145 103.056 123.129 102.893C123.129 102.893 123.129 102.893 123.129 102.893C123.071 102.328 123.02 101.762 122.972 101.197C122.844 99.692 122.738 98.1914 122.549 96.7043C122.547 96.6861 122.544 96.6679 122.542 96.6496C121.796 88.6583 121.95 80.415 121.902 72.2736C121.902 72.1834 121.902 72.0933 121.902 72.0033C121.902 71.9749 121.902 71.9517 121.902 71.9275C121.902 71.926 121.902 71.9241 121.902 71.9242C121.902 71.9242 121.902 71.9242 121.902 71.9242C121.902 71.9242 121.902 71.9242 121.902 71.9242C121.902 71.9242 121.902 71.9242 121.902 71.9242C121.902 71.9242 121.902 71.9242 121.902 71.9242C123.419 71.9242 117.655 71.9242 119.172 71.9242C119.172 71.9242 119.172 71.9242 119.172 71.9242C119.172 71.9242 119.172 71.9242 119.172 71.9242C119.172 71.9242 119.172 71.9242 119.172 71.9242C119.172 71.9242 119.172 71.9242 119.172 71.9242C119.172 71.9242 119.172 71.9242 119.172 71.9242C119.172 71.9242 119.172 71.9242 119.172 71.9242C119.172 71.9242 119.172 71.9243 119.172 71.9243C119.172 71.9245 119.172 71.9245 119.172 71.9246C119.172 71.9248 119.172 71.925 119.172 71.9252C119.172 71.9262 119.172 71.9278 119.172 71.9301C119.172 71.9346 119.172 71.9356 119.172 71.9391C119.172 71.9456 119.172 71.9529 119.172 71.9582C119.172 71.9707 119.172 71.984 119.172 71.996C119.172 72.046 119.172 72.099 119.172 72.1477C119.172 72.2491 119.172 72.3499 119.172 72.4512C119.172 72.6551 119.172 72.8547 119.172 73.0583C119.172 73.6246 119.172 74.1924 119.172 74.7593Z" fill="white"/>
<path d="M134.109 82.5019C133.838 82.5183 133.584 82.6417 133.404 82.845C133.224 83.0483 133.132 83.3148 133.149 83.5859C133.165 83.857 133.288 84.1104 133.492 84.2904C133.695 84.4705 133.961 84.5624 134.233 84.546C134.233 84.546 134.233 84.546 134.233 84.546C133.895 84.56 133.711 84.4385 133.615 84.3766C133.509 84.3009 133.498 84.2797 133.477 84.2599C133.439 84.2201 133.426 84.2006 133.419 84.1918C133.411 84.1799 133.418 84.1889 133.428 84.2075C133.445 84.2356 133.479 84.3 133.503 84.349C133.561 84.4665 133.62 84.596 133.675 84.7223C133.792 84.9887 133.903 85.2587 134.016 85.5377C134.238 86.0907 134.454 86.6571 134.666 87.2236C136.091 91.058 137.407 94.9502 138.691 98.8483C138.698 98.8667 138.704 98.8852 138.71 98.9037C139.308 100.802 139.058 103.173 138.366 105.078C138.355 105.107 138.343 105.135 138.332 105.162C138.171 105.586 137.886 105.897 137.768 105.927C137.71 105.946 137.717 105.942 137.664 105.929C137.615 105.914 137.506 105.855 137.389 105.737C137.365 105.713 137.343 105.69 137.32 105.663C132.028 99.4427 134.985 89.7643 138.715 82.6136C138.718 82.6077 138.722 82.602 138.725 82.5965C138.776 82.4221 139.379 82.1342 140.124 82.0478C140.869 81.942 141.695 81.9343 142.587 81.8885C142.631 81.8858 142.674 81.8833 142.717 81.8811C144.133 81.6992 145.915 81.6989 147.132 83.018C147.152 83.039 147.172 83.0603 147.191 83.082C148.57 84.643 149.673 86.4216 150.775 88.1817C151.417 89.2202 152.045 90.2674 152.674 91.3146C152.045 90.2674 151.417 89.2202 150.775 88.1817C149.673 86.4216 148.57 84.643 147.191 83.082C147.172 83.0603 147.152 83.0386 147.133 83.017C146.573 82.3914 146.101 81.6632 145.375 81.0442C144.661 80.4183 143.645 80.0209 142.734 79.9769C142.684 79.9738 142.633 79.9711 142.582 79.9687C141.761 79.9236 140.869 79.8385 139.906 79.9042C138.992 80.0002 137.688 80.0936 136.799 81.4311C136.777 81.4674 136.755 81.5044 136.735 81.5419C132.907 89.0436 129.207 99.3045 135.598 107.175C135.654 107.238 135.709 107.297 135.771 107.359C136.324 107.988 137.666 108.538 138.719 107.988C139.723 107.486 140.129 106.671 140.409 105.971C140.424 105.933 140.438 105.894 140.452 105.855C141.264 103.366 141.429 100.843 140.655 98.265C140.649 98.2465 140.643 98.2279 140.637 98.2094C139.346 94.2912 138.029 90.3942 136.584 86.5054C136.368 85.9291 136.148 85.3515 135.916 84.7742C135.798 84.4821 135.682 84.1978 135.55 83.8978C135.486 83.7541 135.42 83.6055 135.338 83.4399C135.303 83.3704 135.252 83.2691 135.201 83.1822C135.167 83.1239 135.137 83.0735 135.088 83.0044C135.054 82.9575 135.016 82.9071 134.956 82.8438C134.924 82.8132 134.9 82.7788 134.774 82.6887C134.66 82.6143 134.46 82.4869 134.109 82.5019Z" fill="white"/>
<path d="M153.637 92.9749C153.637 92.762 153.552 92.5579 153.402 92.4073C153.251 92.2568 153.047 92.1722 152.834 92.1722C152.621 92.1722 152.417 92.2568 152.267 92.4073C152.116 92.5579 152.031 92.762 152.031 92.9749C152.034 94.4303 152.08 95.8766 152.172 97.3283C152.174 97.3615 152.177 97.3948 152.179 97.4281C152.182 97.4799 152.186 97.5278 152.193 97.5786C152.196 97.6041 152.2 97.6304 152.205 97.6601C152.227 97.7182 152.161 97.6179 152.306 97.9482C152.354 98.0254 152.423 98.1578 152.651 98.2806C152.877 98.4151 153.266 98.3724 153.427 98.2578C153.621 98.1308 153.608 98.1078 153.647 98.0708C153.675 98.0361 153.695 98.0065 153.712 97.9806C153.773 97.8787 153.789 97.8265 153.806 97.7781C153.841 97.672 153.843 97.6511 153.852 97.6138C153.886 97.4617 153.905 97.3402 153.924 97.2192C153.946 97.079 153.96 96.9828 153.976 96.8621C153.992 96.7418 154.009 96.6155 154.022 96.5098C154.083 96.0262 154.133 95.5803 154.183 95.1264C155.058 86.7521 155.864 78.4001 156.634 70.0558C156.657 69.8071 156.74 69.5303 156.858 69.3098C156.922 69.1873 157 69.0803 157.049 69.0311C157.099 68.9692 157.091 69.047 156.849 69.0352C156.62 68.9568 156.862 69.0325 156.999 69.2828C159.075 73.8076 159.677 79.81 160.759 85.2117C160.822 85.5598 160.882 85.8985 160.943 86.2439C161.661 89.8764 161.756 93.1391 162.899 97.238C162.927 97.2934 162.96 97.3541 163.012 97.4258C163.073 97.4953 163.094 97.5793 163.379 97.7516C163.636 97.9217 164.17 97.9055 164.412 97.7285C164.539 97.6525 164.628 97.5599 164.676 97.5039C164.713 97.4607 164.742 97.4209 164.766 97.3843C164.862 97.2322 164.886 97.1508 164.911 97.088C164.934 97.0227 164.955 96.9528 164.966 96.9126C165.018 96.7141 165.044 96.56 165.067 96.4169C165.59 91.6893 165.65 87.2275 166.04 82.6651C166.072 82.2652 166.108 81.8719 166.15 81.4751C166.708 76.4831 167.951 71.3811 170.401 67.1554C170.388 67.1707 170.363 67.2313 170.22 67.3198C170.08 67.4166 169.786 67.435 169.668 67.3848C169.427 67.286 169.514 67.2877 169.54 67.3409C170.418 68.7592 170.817 71.2251 171.272 73.3013C171.33 73.5805 171.393 73.8778 171.455 74.1602C173.001 81.3669 174.263 88.6752 175.735 95.9599C175.761 96.085 175.786 96.2082 175.811 96.3295C176.466 99.283 176.993 102.324 178.467 105.25C178.507 105.329 178.547 105.406 178.587 105.483C178.612 105.53 178.636 105.577 178.661 105.624C179.746 107.667 181.154 109.436 182.396 111.321C182.467 111.427 182.581 111.502 182.708 111.534C182.837 111.565 182.968 111.549 183.079 111.488C183.189 111.426 183.272 111.323 183.313 111.197C183.354 111.072 183.35 110.936 183.298 110.82C183.298 110.82 183.298 110.82 183.298 110.82C182.364 108.763 181.485 106.653 180.529 104.683C180.507 104.638 180.486 104.592 180.464 104.547C180.429 104.473 180.394 104.4 180.36 104.326C179.179 101.805 178.709 98.7784 178.072 95.8637C178.048 95.7437 178.023 95.6219 177.997 95.4982C176.535 88.2615 175.267 80.9567 173.699 73.6691C173.636 73.3823 173.566 73.0808 173.497 72.7977C172.884 70.5679 172.494 68.5403 171.022 66.1491C170.866 65.9815 170.751 65.7642 170.232 65.5709C169.979 65.4761 169.529 65.5067 169.265 65.6786C168.997 65.8403 168.88 66.0131 168.789 66.1529C166.084 70.8832 164.903 76.0608 164.303 81.2783C164.26 81.6905 164.221 82.0989 164.186 82.5141C163.781 87.0583 163.58 91.7424 163.101 96.1002C163.083 96.2074 163.06 96.3284 163.043 96.3905C163.046 96.4046 162.995 96.4769 163.098 96.2946C163.135 96.2511 163.148 96.1788 163.385 96.0219C163.598 95.8622 164.102 95.847 164.329 96.0007C164.579 96.1533 164.583 96.2132 164.626 96.2588C164.659 96.3052 164.674 96.3343 164.683 96.3519C163.921 93.4523 163.54 89.401 162.873 85.9051C162.812 85.5563 162.751 85.2139 162.688 84.8622C161.534 79.3276 161.251 73.8971 158.646 68.203C158.362 67.8276 158.062 67.222 157.042 67.0493C156.348 66.9949 155.926 67.3297 155.66 67.5686C155.387 67.8266 155.212 68.0898 155.068 68.3583C154.816 68.8373 154.668 69.3339 154.617 69.873C153.875 78.2315 153.382 86.6232 152.575 94.9555C152.529 95.4043 152.482 95.8452 152.426 96.3123C152.413 96.4142 152.398 96.5352 152.383 96.6483C152.368 96.7613 152.356 96.8513 152.337 96.9737C152.321 97.0754 152.302 97.189 152.287 97.2535C152.286 97.2627 152.278 97.2876 152.287 97.2604C152.293 97.2437 152.299 97.2153 152.351 97.1289C152.364 97.1069 152.382 97.0808 152.408 97.0489C152.444 97.0146 152.43 96.9943 152.617 96.8714C152.773 96.7598 153.158 96.7175 153.379 96.8494C153.601 96.9697 153.666 97.0969 153.709 97.166C153.782 97.3066 153.778 97.3509 153.78 97.3469C153.782 97.3553 153.783 97.3614 153.784 97.3658C153.785 97.3745 153.786 97.3767 153.785 97.3748C153.785 97.3709 153.783 97.3514 153.781 97.3226C153.779 97.2901 153.777 97.2578 153.775 97.2255C153.685 95.8133 153.639 94.3884 153.637 92.9749Z" fill="white"/>
<path d="M124.883 57.188C125.058 57.2462 125.248 57.2327 125.413 57.1503C125.578 57.068 125.703 56.9236 125.761 56.7489C125.819 56.5742 125.806 56.3835 125.724 56.2188C125.641 56.0541 125.497 55.9288 125.322 55.8706C125.322 55.8706 125.322 55.8706 125.322 55.8706C124.729 55.6725 124.109 55.546 123.487 55.4948C122.02 55.3715 120.567 55.6683 119.249 56.1759C119.219 56.1876 119.188 56.1994 119.158 56.2114C116.953 57.1223 115.056 58.7539 114.255 61.21C114.237 61.277 114.22 61.3506 114.206 61.4203C114.104 61.8315 114.195 62.4909 114.587 62.8758C114.962 63.2592 115.359 63.3867 115.711 63.4856C116.422 63.6632 117.064 63.6677 117.699 63.6531C118.963 63.608 120.171 63.42 121.372 63.1484C121.443 63.1321 121.513 63.1151 121.582 63.0976C123.357 62.6052 125.165 61.7766 126.185 59.8479C126.218 59.7737 126.245 59.6971 126.264 59.6205C126.426 58.8777 126.031 58.3881 125.693 58.079C125.334 57.7628 124.938 57.579 124.565 57.4013C124.533 57.386 124.5 57.3707 124.467 57.3553C123.234 56.823 121.957 56.7503 120.695 56.6596C120.68 56.6588 120.665 56.658 120.651 56.6572C120.283 56.6372 119.914 56.6338 119.545 56.6516C118.971 56.6774 118.401 56.7646 117.838 56.86C117.819 56.8631 117.802 56.8738 117.791 56.8896C117.78 56.9054 117.775 56.9251 117.778 56.9442C117.781 56.9634 117.792 56.9805 117.808 56.9918C117.824 57.0031 117.843 57.0076 117.863 57.0044C117.863 57.0044 117.863 57.0044 117.863 57.0044C118.425 56.9091 118.986 56.8234 119.552 56.7979C119.915 56.7804 120.28 56.7837 120.643 56.8034C120.657 56.8042 120.672 56.8051 120.687 56.8059C121.927 56.8929 123.214 57.1645 124.241 57.7727C124.268 57.7895 124.294 57.8069 124.319 57.8248C124.923 58.2149 125.1 59.189 124.962 59.2622C124.96 59.2663 124.957 59.2686 124.955 59.2702C124.291 60.4035 122.684 61.1828 121.191 61.5585C121.132 61.5735 121.073 61.588 121.013 61.6022C119.895 61.8601 118.744 62.0769 117.628 62.1556C117.074 62.1919 116.511 62.1913 116.06 62.0896C115.839 62.0419 115.66 61.9509 115.614 61.8996C115.578 61.8555 115.56 61.8636 115.584 61.6904C115.592 61.6499 115.602 61.6049 115.613 61.5623C116.148 59.8126 117.836 58.2194 119.666 57.5039C119.693 57.4932 119.72 57.4826 119.747 57.4722C120.922 57.0196 122.163 56.7767 123.372 56.8787C123.886 56.9212 124.394 57.0248 124.883 57.188Z" fill="white"/>
<path d="M218.979 84.1238C218.999 83.947 218.948 83.7695 218.837 83.6306C218.725 83.4917 218.564 83.4026 218.387 83.3829C218.21 83.3633 218.032 83.4147 217.894 83.5258C217.755 83.637 217.665 83.7988 217.646 83.9756C217.646 83.9756 217.646 83.9756 217.646 83.9756C217.475 85.5547 217.195 87.1066 216.808 88.6471C216.808 88.6484 216.807 88.6498 216.807 88.6511C216.681 89.1563 216.51 89.6639 216.315 90.1648C215.258 92.8102 213.681 95.3074 212.093 97.765C212.092 97.7669 212.091 97.7688 212.089 97.7706C210.525 100.208 208.319 102.143 205.896 103.828C205.893 103.831 205.889 103.833 205.886 103.835C203.096 105.778 199.465 106.291 195.978 106.254C195.978 106.254 195.977 106.254 195.977 106.254C194.02 106.264 192.491 104.812 191.178 103.201C191.175 103.197 191.172 103.194 191.169 103.19C189.458 101.103 188.962 98.1603 188.795 95.3006C188.794 95.2956 188.794 95.2905 188.794 95.2855C188.591 91.665 190.006 88.0646 191.969 84.8879C191.973 84.8818 191.977 84.8756 191.981 84.8695C193.971 81.7741 197.792 80.0199 201.46 78.6424C201.472 78.6378 201.484 78.6334 201.497 78.6289C202.635 78.2122 203.752 78.0191 204.942 78.1529C204.954 78.1542 204.967 78.1554 204.979 78.1567C205.737 78.2405 206.103 78.3616 206.483 78.9958C206.488 79.0043 206.493 79.0129 206.498 79.0215C207.091 80.0994 207.238 81.561 206.966 82.8858C206.964 82.8975 206.961 82.9091 206.959 82.9207C206.553 84.8142 205.417 86.6234 203.939 88.0216C203.931 88.0293 203.922 88.037 203.914 88.0447C201.924 89.9109 199.419 91.1364 196.885 92.1869C196.877 92.1902 196.868 92.1936 196.86 92.1969C193.412 93.5998 189.82 94.6653 186.23 95.6656C186.225 95.6671 186.219 95.6686 186.214 95.6701C183.253 96.4954 180.323 97.5607 177.272 98.1262C177.269 98.1267 177.267 98.1272 177.264 98.1278C176.205 98.3263 175.146 98.5227 174.087 98.7178C171.949 99.1115 169.81 99.5002 167.671 99.8892C167.653 99.8924 167.638 99.9024 167.628 99.9171C167.618 99.9318 167.614 99.9499 167.617 99.9675C167.62 99.9851 167.63 100.001 167.645 100.011C167.659 100.021 167.678 100.025 167.695 100.022C167.695 100.022 167.695 100.022 167.695 100.022C169.834 99.6328 171.973 99.244 174.111 98.8503C175.171 98.6552 176.23 98.4588 177.289 98.2602C177.291 98.2597 177.294 98.2592 177.297 98.2586C180.339 97.6967 183.481 97.5139 186.491 96.6756C186.497 96.6741 186.502 96.6726 186.508 96.6711C190.138 95.6583 193.696 94.4083 197.163 92.9088C197.171 92.9052 197.179 92.9016 197.187 92.8981C199.737 91.7735 202.259 90.4314 204.331 88.4894C204.339 88.4814 204.348 88.4733 204.356 88.4653C205.885 87.0129 207.337 85.3436 207.998 83.1857C208.002 83.1724 208.006 83.1591 208.009 83.1459C208.436 81.6222 208.487 79.966 207.816 78.3682C207.81 78.3547 207.804 78.3413 207.798 78.328C207.467 77.3522 206.16 76.4737 205.192 76.4354C205.176 76.4332 205.159 76.431 205.143 76.4289C203.732 76.2143 202.188 76.4246 200.875 76.9161C200.86 76.9213 200.846 76.9266 200.831 76.9319C197.037 78.3873 192.934 80.096 190.427 83.9056C190.422 83.9132 190.418 83.9208 190.413 83.9284C188.344 87.2849 186.744 91.2196 186.971 95.3857C186.972 95.3915 186.972 95.3972 186.972 95.4029C187.162 98.4262 187.729 101.717 189.9 104.267C189.904 104.271 189.908 104.275 189.912 104.28C191.325 105.939 193.437 107.658 195.961 107.622C195.962 107.622 195.962 107.622 195.963 107.622C199.602 107.64 203.479 107.135 206.659 104.936C206.662 104.933 206.666 104.931 206.669 104.929C209.147 103.208 211.539 101.128 213.218 98.5066C213.22 98.5047 213.221 98.5028 213.222 98.5009C214.828 96.0102 216.429 93.491 217.566 90.6517C217.776 90.1108 217.964 89.5535 218.109 88.976C218.109 88.9747 218.11 88.9733 218.11 88.9719C218.509 87.3826 218.803 85.7521 218.979 84.1238Z" fill="white"/>
</svg>
