<svg width="350" height="25" viewBox="0 0 350 25" fill="none" xmlns="http://www.w3.org/2000/svg">
<path d="M26.8488 17.7253C27.1599 17.8007 27.4882 17.7494 27.7615 17.5827C28.0349 17.4161 28.2308 17.1476 28.3062 16.8365C28.3816 16.5254 28.3303 16.1971 28.1636 15.9238C27.9969 15.6504 27.7285 15.4545 27.4174 15.3791C27.4174 15.3791 27.4174 15.3791 27.4174 15.3791C26.8896 15.2512 26.363 15.1237 25.8393 14.9946C25.5788 14.9303 25.316 14.8649 25.0608 14.7995C24.9328 14.7666 24.8057 14.7334 24.6839 14.7003C24.6252 14.6842 24.5637 14.667 24.5152 14.6526C24.4909 14.6453 24.4676 14.638 24.4619 14.636C24.4608 14.6358 24.4596 14.6343 24.4974 14.65C24.5037 14.6527 24.5265 14.6624 24.5561 14.6773C24.5715 14.685 24.59 14.6947 24.6137 14.7084C24.6316 14.7204 24.6751 14.7388 24.7851 14.8298C24.8385 14.8762 24.9081 14.9384 24.9941 15.0612C25.0678 15.2137 25.216 15.2689 25.1997 15.8773C25.1363 16.4407 24.7234 16.7342 24.5585 16.8134C24.3456 16.9145 24.3357 16.8985 24.2939 16.9131C24.1495 16.9465 24.0959 16.9437 24.0531 16.9463C23.8953 16.945 23.9795 16.9439 23.9846 16.9468C24.005 16.9491 24.0366 16.9531 24.0642 16.9567C26.3936 17.2965 28.7819 17.7693 31.1542 17.9817C31.2267 17.9882 31.2999 17.9946 31.3739 18.0007C32.8864 18.1275 34.3973 18.2172 35.9183 18.2787C51.6147 18.7223 67.1373 18.2489 82.7889 17.9366C82.8476 17.9353 82.9064 17.9339 82.9653 17.9325C134.74 16.664 186.455 14.0963 238.19 12.29C238.209 12.2893 238.228 12.2886 238.247 12.288C262.461 11.4261 286.61 10.5004 310.778 9.34053C315.861 9.09816 320.944 8.84777 326.029 8.59693C326.188 8.58912 326.336 8.51874 326.443 8.40128C326.549 8.28381 326.605 8.12888 326.597 7.97056C326.589 7.81225 326.519 7.66352 326.401 7.55709C326.284 7.45066 326.129 7.39526 325.971 7.40307C320.886 7.65391 315.803 7.90426 310.721 8.14658C286.559 9.30611 262.416 10.2316 238.205 11.0934C238.186 11.0941 238.167 11.0948 238.148 11.0954C186.418 12.9003 134.64 13.7066 82.8967 14.9743C82.8379 14.9757 82.7792 14.9771 82.7205 14.9784C67.1018 15.2916 51.5054 15.8001 36.0335 15.3902C34.5423 15.3326 33.086 15.2487 31.6093 15.1275C31.5369 15.1216 31.4651 15.116 31.3938 15.1105C29.0484 14.9298 26.7286 14.9053 24.377 14.563C24.3419 14.5584 24.2994 14.5529 24.2544 14.5479C24.1892 14.5433 24.2114 14.5343 23.9837 14.5332C23.9294 14.5362 23.8669 14.5343 23.7164 14.5692C23.6733 14.5842 23.6616 14.5684 23.4456 14.6711C23.2782 14.7516 22.8639 15.0467 22.8003 15.6118C22.784 16.2224 22.9328 16.2784 23.0073 16.4324C23.0943 16.5565 23.1653 16.6201 23.2204 16.668C23.334 16.7621 23.383 16.7839 23.4031 16.797C23.4298 16.8125 23.4517 16.824 23.4709 16.8337C23.5073 16.852 23.5427 16.8673 23.554 16.8721C23.6206 16.9 23.6531 16.9105 23.6841 16.9213C23.7428 16.9412 23.7836 16.9534 23.8255 16.966C23.905 16.9897 23.9791 17.0102 24.0484 17.0292C24.1904 17.0679 24.3254 17.103 24.4605 17.1377C24.7287 17.2065 24.9965 17.2731 25.2611 17.3384C25.7925 17.4694 26.3208 17.5973 26.8488 17.7253Z" fill="white"/>
</svg>
