<svg width="268" height="140" viewBox="0 0 268 140" fill="none" xmlns="http://www.w3.org/2000/svg">
<path d="M11.105 104.302C11.105 104.573 11.2127 104.833 11.4045 105.025C11.5962 105.216 11.8563 105.324 12.1274 105.324C12.3986 105.324 12.6587 105.216 12.8504 105.025C13.0422 104.833 13.1499 104.573 13.1499 104.302C13.1561 99.1688 13.5767 93.9715 13.8989 88.7854C13.9413 88.1489 13.9822 87.5398 14.026 86.8938C14.0285 86.857 14.031 86.8201 14.0335 86.7831C15.1495 70.7584 16.315 54.6961 17.8319 38.7251C17.8464 38.5795 17.8608 38.4359 17.8751 38.2943C18.0844 36.2602 18.2996 34.1748 18.6202 32.1945C18.7001 31.7182 18.7963 31.2005 18.9111 30.7928C18.9435 30.6794 18.9689 30.6014 18.9996 30.5243C19.0053 30.4749 19.1117 30.3855 18.9127 30.5959C18.8696 30.6361 18.7217 30.7465 18.5303 30.7863C18.3363 30.835 18.0844 30.7935 17.9464 30.7218C17.7122 30.5989 17.6954 30.5246 17.6806 30.5151C17.6647 30.4888 17.7123 30.5719 17.7423 30.6487C18.037 31.4149 18.2594 32.4874 18.4733 33.4684C18.5903 34.0183 18.6971 34.5432 18.8088 35.0996C21.341 47.6 23.545 60.1216 25.9928 72.6841C26.09 73.1497 26.1919 73.6247 26.3011 74.0888C26.5807 75.099 26.5415 75.9271 27.2879 77.3807C27.3583 77.4825 27.4507 77.616 27.6425 77.7685C27.8107 77.9104 28.1955 78.0922 28.577 78.0431C29.3348 77.899 29.4389 77.5824 29.6067 77.4137C29.8693 77.0581 29.9829 76.7809 30.1007 76.5145C30.3293 75.9705 30.4898 75.4633 30.643 74.9555C30.7705 74.5283 30.8819 74.1221 30.9955 73.6875C33.5415 62.932 35.2082 52.1533 37.4149 41.448C37.4853 41.1018 37.5555 40.7597 37.6252 40.4218C39.4842 31.8588 41.2334 23.0008 44.7328 15.2547C44.8565 15.0248 44.9819 14.8078 45.1055 14.6297C45.2387 14.4354 45.4155 14.2832 45.5698 14.2141C45.7285 14.1453 45.8278 14.1443 45.9506 14.1915C46.0386 14.2271 46.148 14.3042 46.2591 14.4298C48.0751 18.521 47.8178 24.9214 48.3095 30.2677C48.3247 30.4963 48.34 30.7281 48.3553 30.9633C49.456 48.7206 50.1018 66.5537 51.2317 84.3691C51.2391 84.4822 51.2464 84.5948 51.2538 84.707L51.2615 84.7847C52.7477 95.9033 54.3681 107.002 56.4477 118.032C57.1363 121.765 57.99 125.516 58.6413 129.143C58.6428 129.152 58.6443 129.16 58.6457 129.169L58.6389 129.121C58.8031 130.469 59.2302 131.824 59.405 133.202C59.4233 133.351 59.5064 133.494 59.6253 133.6C59.7448 133.706 59.8904 133.765 60.0407 133.765C60.191 133.765 60.3366 133.706 60.4561 133.6C60.575 133.494 60.6581 133.351 60.6764 133.202C60.8431 131.764 61.091 130.3 60.9254 128.848L60.9185 128.8C60.917 128.79 60.9155 128.781 60.914 128.771C60.2318 124.959 59.4055 121.335 58.7212 117.603C56.666 106.641 55.0615 95.5704 53.579 84.4765L53.5867 84.5542C53.5793 84.4424 53.572 84.3302 53.5647 84.2175C52.4375 66.4488 51.7762 48.626 50.6595 30.8125C50.6439 30.5761 50.6284 30.3431 50.6129 30.1134C49.9699 24.4798 50.4985 19.1843 47.683 13.1527C47.4273 12.869 47.0967 12.5974 46.6756 12.4243C45.3966 11.8846 44.0889 12.6617 43.5205 13.5004C43.3134 13.7895 43.1608 14.0538 43.0116 14.3296C39.2358 22.7038 37.6361 31.3596 35.737 40.0325C35.6671 40.372 35.5967 40.7157 35.5259 41.0633C33.3183 51.7799 31.5025 62.6401 28.9662 73.1532C28.8556 73.5694 28.7481 73.9547 28.6287 74.3495C28.4871 74.8152 28.3339 75.282 28.1615 75.6872C28.0829 75.8754 27.9724 76.0826 27.9318 76.1302C27.9374 76.1663 27.8623 76.0511 28.3588 75.9435C28.613 75.9097 28.8682 76.038 28.9401 76.1029C29.0298 76.1758 29.0379 76.2021 29.0419 76.2049C29.0314 76.1986 28.9359 75.9762 28.8784 75.7767C28.8146 75.5673 28.7557 75.3354 28.6991 75.0984C28.5855 74.6213 28.4808 74.1186 28.3597 73.6038C28.2579 73.1705 28.1585 72.7076 28.0635 72.2524C25.6354 59.7901 23.4132 47.1908 20.8772 34.6845C20.7645 34.1234 20.6563 33.5919 20.5363 33.0288C20.3023 31.9902 20.1339 31.0208 19.6859 29.8405C19.6194 29.6883 19.5588 29.5313 19.389 29.287C19.3049 29.1803 19.1877 28.9931 18.8492 28.822C18.6478 28.7198 18.3301 28.6705 18.0765 28.7327C17.8288 28.7828 17.6081 28.9388 17.5262 29.0148C17.4266 29.1026 17.3557 29.1888 17.2974 29.2705C17.2491 29.3389 17.218 29.391 17.1855 29.4495C17.1185 29.5725 17.0843 29.6544 17.0484 29.7428C16.9716 29.939 16.9368 30.0567 16.8893 30.2227C16.7327 30.7918 16.6381 31.3385 16.5525 31.8532C16.2207 33.9507 16.0156 36.0321 15.8055 38.0861C15.7912 38.2287 15.7768 38.3733 15.7623 38.5198C14.2533 54.5535 13.1109 70.5989 11.9933 86.6447C11.9907 86.6817 11.9882 86.7187 11.9857 86.7556C11.9419 87.4023 11.9009 88.0122 11.8585 88.6497C11.5361 93.8521 11.1133 99.0231 11.105 104.302Z" fill="white"/>
<path d="M98.3864 60.145C98.7253 60.1873 99.0671 60.0933 99.3366 59.8837C99.6062 59.674 99.7814 59.3659 99.8238 59.027C99.8661 58.6882 99.7721 58.3464 99.5625 58.0768C99.3528 57.8073 99.0447 57.632 98.7058 57.5897C98.7058 57.5897 98.7058 57.5897 98.7058 57.5897C95.7139 57.2115 92.6215 57.2489 89.6216 57.8535C88.3511 58.1073 87.1011 58.4576 85.8846 58.8969C85.8709 58.9019 85.8572 58.9068 85.8434 58.9118C80.5609 60.8394 76.8441 65.1258 73.9135 69.3473C73.9013 69.3649 73.8892 69.3825 73.877 69.4001C70.2832 74.61 69.3308 80.9663 69.1868 86.8495C69.1861 86.8757 69.1854 86.9018 69.1847 86.9279C68.9752 92.4878 72.2446 97.5124 76.2412 100.707C76.2725 100.733 76.3038 100.758 76.3351 100.783C81.7759 105.115 88.8553 104.552 94.6731 103.383C94.7004 103.377 94.7277 103.371 94.755 103.366C103.07 101.571 107.259 93.5699 109.2 86.6018C109.204 86.5892 109.207 86.5765 109.211 86.5638C111.465 78.0959 108.903 69.4875 105.232 62.1847C105.228 62.1767 105.224 62.1688 105.22 62.1609C103.694 59.1125 100.267 58.3842 97.8137 58.1748C95.2159 57.9595 92.7477 58.1142 90.3055 58.2305L90.098 58.2542C90.0594 58.262 90.0208 58.2699 89.9822 58.2778C81.4149 60.0815 73.1175 63.742 66.61 69.6315L66.6001 69.6403C66.5918 69.6483 66.5835 69.6563 66.5752 69.6642C66.2494 69.9778 65.9259 70.2936 65.6046 70.6115C63.5272 72.6641 61.5527 74.8066 59.5769 76.9377C59.532 76.986 59.5081 77.0515 59.5094 77.1186C59.5106 77.1857 59.537 77.249 59.5835 77.2956C59.6301 77.3422 59.6935 77.3685 59.7606 77.3698C59.8277 77.371 59.8931 77.3471 59.9415 77.3023C59.9415 77.3023 59.9415 77.3023 59.9415 77.3023C62.0715 75.3242 64.2135 73.3656 66.4054 71.4781C66.7445 71.1857 67.0847 70.8947 67.4259 70.6052C67.4346 70.5979 67.4433 70.5905 67.452 70.5831L67.442 70.5919C74.0576 65.3237 82.298 62.5209 90.509 61.0137C90.546 61.0071 90.583 61.0005 90.6201 60.994L90.4125 61.0176C95.0284 60.9792 100.973 60.3931 102.565 63.5137C102.569 63.5212 102.573 63.5287 102.577 63.5362C106.078 70.457 108.344 78.4646 106.362 85.7843C106.359 85.796 106.356 85.8077 106.353 85.8194C104.574 92.356 100.546 99.1036 94.1386 100.331C94.1129 100.337 94.0871 100.342 94.0613 100.347C88.5193 101.457 82.4171 101.601 78.3577 98.282C78.3303 98.2599 78.303 98.2377 78.2757 98.2155C74.7604 95.3874 72.2313 91.3283 72.3889 87.0098C72.3895 86.9847 72.3902 86.9595 72.3908 86.9344C72.5152 81.2782 73.3464 75.5933 76.359 71.0819C76.3704 71.0649 76.3817 71.0478 76.3931 71.0308C79.1224 66.9334 82.2981 62.9359 86.7217 61.3326C86.7341 61.3281 86.7465 61.3236 86.7589 61.3191C87.8581 60.9223 88.9829 60.6072 90.1264 60.3787C92.8258 59.8354 95.6185 59.7958 98.3864 60.145Z" fill="white"/>
<path d="M139.816 57.6662C140.155 57.7286 140.505 57.6538 140.789 57.4583C141.072 57.2627 141.267 56.9625 141.329 56.6236C141.392 56.2847 141.317 55.9349 141.121 55.6511C140.926 55.3674 140.625 55.1729 140.287 55.1105C140.287 55.1105 140.287 55.1105 140.287 55.1105C137.29 54.8078 135.16 55.7056 132.869 56.4857C128.986 57.9573 125.385 59.9777 122.064 62.4203C122.058 62.425 122.052 62.4298 122.045 62.4345C120.24 63.81 118.949 65.5984 118.272 67.7654C118.27 67.774 118.267 67.7826 118.265 67.7912C118.128 68.2862 118.007 68.9013 118.166 69.6385C118.315 70.3808 118.837 71.0528 119.33 71.4146C120.338 72.1453 121.226 72.3196 122.077 72.5105C122.092 72.5135 122.107 72.5165 122.122 72.5195C129.66 74.0001 137.253 73.5549 144.252 74.8536C144.258 74.8548 144.265 74.8561 144.271 74.8574C148.237 75.58 151.434 78.3961 153.251 82.1098C153.255 82.118 153.259 82.1261 153.263 82.1343C154.105 83.8498 153.718 86.6024 152.956 88.9413C152.954 88.9474 152.952 88.9536 152.95 88.9597C150.069 95.7272 141.124 99.2368 133.809 102.743L133.972 102.68C133.967 102.682 133.961 102.684 133.956 102.686C123.597 105.903 113.066 109.095 102.358 110.161C101.477 110.232 100.59 110.278 99.7162 110.279C99.7044 110.279 99.6927 110.279 99.6809 110.279L99.8133 110.29C98.5482 110.098 97.5669 110.206 97.0907 108.767C97.0554 108.681 96.9815 108.608 96.8929 108.563C96.8038 108.518 96.7072 108.504 96.6168 108.527C96.5265 108.549 96.4476 108.607 96.3902 108.689C96.3333 108.77 96.3024 108.869 96.3119 108.962C96.3119 108.962 96.3119 108.962 96.3119 108.962C96.3539 109.621 96.538 110.626 97.278 111.245C97.9716 111.856 98.7639 112.126 99.5138 112.261L99.6461 112.272C99.6588 112.273 99.6715 112.273 99.6841 112.274C100.626 112.303 101.562 112.287 102.487 112.247C113.623 111.539 124.366 108.861 134.881 105.601C134.886 105.599 134.892 105.598 134.897 105.596L135.061 105.533C142.52 101.75 151.574 99.0927 155.817 89.8993C155.82 89.8922 155.822 89.885 155.824 89.8779C156.64 87.1199 157.429 84.0934 155.968 80.7765C155.963 80.7671 155.958 80.7576 155.954 80.7482C153.919 76.4701 149.773 72.725 144.867 71.8694C144.86 71.868 144.853 71.8666 144.846 71.8652C137.212 70.4781 129.762 71.0123 122.685 69.6441C122.673 69.6418 122.661 69.6395 122.649 69.6372C121.994 69.5149 121.34 69.2945 121.094 69.1012C120.971 69.0021 121 69.0169 120.987 68.9987C120.974 68.9767 120.965 68.8026 121.032 68.5549C121.034 68.5507 121.035 68.5464 121.036 68.5422C121.448 67.0501 122.339 65.4544 123.596 64.5197C123.6 64.5164 123.605 64.5132 123.609 64.5099C126.734 62.2085 130.171 60.2852 133.781 58.9192C135.799 58.1727 138.196 57.4613 139.816 57.6662Z" fill="white"/>
<path d="M191.979 69.9136C191.936 70.175 191.998 70.4429 192.152 70.6585C192.306 70.8741 192.539 71.0197 192.8 71.0633C193.062 71.1069 193.33 71.0448 193.545 70.8908C193.761 70.7368 193.906 70.5035 193.95 70.2421C193.95 70.2421 193.95 70.2421 193.95 70.2421C194.347 67.8804 194.442 65.4236 194.075 63.0128C193.954 62.209 193.784 61.4118 193.568 60.6289C193.563 60.6127 193.559 60.5965 193.554 60.5803C192.64 57.2046 190.226 54.4276 187.437 52.5854C187.417 52.5721 187.397 52.5588 187.377 52.5457C185.166 51.055 182.428 50.6363 179.955 50.7504C179.922 50.7517 179.889 50.753 179.855 50.7545C175.215 51.3951 172.656 54.6012 170.169 57.3757C170.139 57.4116 170.109 57.4476 170.08 57.4837C160.526 71.9955 163.865 89.396 168.037 104.556C168.043 104.573 168.048 104.589 168.054 104.606C171.211 111.21 177.388 112.395 182.193 114.877C182.23 114.894 182.268 114.91 182.305 114.926C185.365 116.286 188.767 115.963 191.561 115.232C191.591 115.224 191.62 115.217 191.649 115.209C198.94 112.837 202.456 106.638 205.809 101.217L205.864 101.118C205.869 101.107 205.874 101.096 205.879 101.084C206.387 99.9956 206.538 98.712 206.501 97.4712C206.465 96.3496 206.281 95.2892 206.023 94.3121C206.023 94.3113 206.022 94.3105 206.022 94.3097C205.713 93.0182 204.643 92.1237 203.612 91.3727C204.643 92.1237 205.713 93.0182 206.022 94.3097C206.022 94.3105 206.023 94.3113 206.023 94.3121C206.284 95.3179 205.908 96.3549 205.404 97.2103C204.837 98.1787 204.111 99.0041 203.604 99.9422C203.599 99.9519 203.594 99.9615 203.588 99.9712L203.644 99.8727C200.194 104.954 196.025 110.419 190.801 111.876C190.781 111.881 190.76 111.886 190.74 111.89C188.213 112.506 185.761 112.643 183.697 111.724C183.672 111.713 183.646 111.701 183.62 111.69C178.79 109.439 172.83 107.356 171.221 103.512C171.217 103.503 171.214 103.494 171.211 103.485C166.975 89.2512 164.111 71.6661 172.294 59.2858C172.322 59.2516 172.349 59.2176 172.377 59.1836C174.555 56.5401 177.189 53.5274 179.995 53.1469C180.024 53.1447 180.054 53.1426 180.083 53.1405C182.273 52.9756 184.419 53.3085 186.163 54.4207C186.181 54.432 186.199 54.4433 186.217 54.4548C188.738 56.0382 190.863 58.3052 191.63 61.1175C191.634 61.1322 191.638 61.1468 191.642 61.1614C191.837 61.8679 191.99 62.5856 192.099 63.3102C192.429 65.4824 192.349 67.7118 191.979 69.9136Z" fill="white"/>
<path d="M232.752 60.6924C233.087 60.6063 233.374 60.3908 233.55 60.0933C233.725 59.7957 233.776 59.4406 233.69 59.1059C233.604 58.7712 233.388 58.4845 233.091 58.3087C232.793 58.1329 232.438 58.0825 232.103 58.1686C232.103 58.1686 232.103 58.1686 232.103 58.1686C229.477 58.8497 227.271 60.3729 225.424 62.0948C219.89 67.4727 216.735 74.3766 214.149 81.2494C214.133 81.2912 214.118 81.333 214.103 81.3748C212.253 86.3538 212.41 92.287 215.508 96.9814C215.547 97.0383 215.586 97.0944 215.625 97.1496C217.219 99.3779 219.956 99.5879 221.882 99.4282C221.967 99.4215 222.052 99.4139 222.137 99.4055C228.853 98.6995 234.323 94.46 238.307 89.6375C238.383 89.5445 238.459 89.4513 238.534 89.3578C244.52 82.0454 246.371 71.5406 242.24 62.6687C242.231 62.6552 242.223 62.6418 242.214 62.6284C241.784 62.0724 241.668 61.4055 240.324 60.8821C239.964 60.7751 239.418 60.8135 239.033 61.0267C238.646 61.2306 238.422 61.4927 238.262 61.7117C237.948 62.1614 237.829 62.524 237.728 62.8802C237.722 62.9041 237.715 62.9281 237.709 62.952C234.98 72.3286 236.779 83.3035 242.66 91.0943L242.758 91.2239C242.792 91.264 242.826 91.3037 242.86 91.3431C244.379 93.2591 247.308 93.6241 249.349 93.5891C249.375 93.5903 249.4 93.5915 249.426 93.5928C250.281 93.6335 251.122 93.6068 251.957 93.5548C254.383 93.3943 256.758 93.0362 259.128 92.7016C259.278 92.6801 259.414 92.5996 259.506 92.4777C259.597 92.3559 259.636 92.2027 259.615 92.052C259.593 91.9012 259.513 91.7652 259.391 91.6738C259.269 91.5824 259.116 91.5432 258.965 91.5647C258.965 91.5647 258.965 91.5647 258.965 91.5647C256.597 91.8995 254.235 92.2537 251.884 92.4086C251.077 92.4591 250.272 92.4835 249.482 92.4457C249.458 92.4445 249.435 92.4432 249.411 92.4417C247.28 92.3306 246.054 90.9013 244.95 89.5251C244.923 89.4939 244.896 89.4622 244.868 89.43L244.966 89.5596C239.398 82.0669 237.838 72.5445 240.313 63.6234C240.319 63.6008 240.325 63.5783 240.33 63.5556C240.377 63.3556 240.437 63.175 240.436 63.1388C240.432 63.1202 240.403 63.1619 240.265 63.2261C240.129 63.2959 239.886 63.2993 239.803 63.2563C239.634 63.1662 239.824 63.1997 239.951 63.3178C240.092 63.433 240.242 63.6071 240.365 63.8009C240.37 63.8099 240.376 63.819 240.382 63.8281C243.843 71.3356 241.956 81.218 236.406 87.6303C236.336 87.7155 236.265 87.8006 236.194 87.8855C232.461 92.3138 227.432 96.0088 221.865 96.5198C221.796 96.526 221.728 96.5315 221.662 96.5362C220.042 96.6666 218.599 96.3355 218.018 95.4446C217.989 95.4037 217.96 95.3618 217.931 95.319C215.493 91.6657 214.933 86.5933 216.552 82.2661C216.567 82.2255 216.581 82.1849 216.596 82.1444C219.081 75.4857 222.237 68.7941 227.204 63.9984C228.845 62.4633 230.725 61.2127 232.752 60.6924Z" fill="white"/>
</svg>
