<svg width="268" height="140" viewBox="0 0 268 140" fill="none" xmlns="http://www.w3.org/2000/svg">
<g clip-path="url(#clip0_39_401)">
<rect width="268" height="140" fill="none"/>
<path d="M48.6821 35.6783C48.6821 35.3512 48.5522 35.0375 48.3209 34.8062C48.0896 34.5748 47.7758 34.4449 47.4487 34.4449C47.1216 34.4449 46.8079 34.5748 46.5766 34.8062C46.3453 35.0375 46.2153 35.3512 46.2153 35.6783C46.2162 37.2176 46.2776 38.755 46.3606 40.2695C46.9715 50.1722 48.192 59.9115 49.3823 69.7007C49.3826 69.7035 49.383 69.7062 49.3833 69.709C51.1437 83.1173 53.0527 96.4919 55.5513 109.833C55.5524 109.839 55.5535 109.844 55.5545 109.85C56.3184 113.634 57.0999 117.426 58.6154 121.123C59.2135 122.576 60.0509 123.995 60.9036 125.242C61.0536 125.467 61.2868 125.623 61.552 125.676C61.8171 125.729 62.0925 125.675 62.3175 125.525C62.5424 125.375 62.6986 125.141 62.7517 124.876C62.8047 124.611 62.7502 124.336 62.6002 124.111C62.6002 124.111 62.6002 124.111 62.6002 124.111C61.7514 122.864 61.0504 121.671 60.494 120.33C59.0967 116.935 58.3029 113.182 57.5556 109.458C57.5546 109.453 57.5535 109.447 57.5524 109.441C55.077 96.2273 53.5862 82.7773 51.8306 69.3994C51.831 69.4025 51.8307 69.3997 51.8303 69.3969C50.6424 59.634 49.424 49.88 48.8236 40.1335C48.7421 38.6482 48.6828 37.1476 48.6821 35.6783Z" fill="white"/>
<path d="M11.5747 48.504C11.3935 48.7455 11.3158 49.049 11.3585 49.3479C11.4012 49.6467 11.5608 49.9163 11.8023 50.0975C12.0438 50.2786 12.3473 50.3563 12.6462 50.3137C12.945 50.271 13.2146 50.1113 13.3958 49.8698C13.3958 49.8698 13.3958 49.8698 13.3958 49.8698C15.6945 46.8664 18.8052 44.3174 21.8912 41.8582C22.1398 41.6624 22.3849 41.4709 22.6367 41.2755C22.6492 41.2657 22.6618 41.256 22.6745 41.2462C34.8572 32.4135 49.4968 27.0797 63.8181 21.9948C63.8822 21.9728 63.9463 21.9507 64.0104 21.9287C75.6301 17.8229 88.4885 19.314 100.096 23.4761C100.177 23.5045 100.258 23.533 100.339 23.5615C103.942 24.6962 105.604 28.5517 106.197 32.5257C106.21 32.6027 106.223 32.68 106.235 32.7574C106.959 37.3976 106.211 42.2771 104.384 46.6616C104.348 46.749 104.311 46.8364 104.273 46.9237C101.761 52.8765 97.0491 57.6912 91.7918 61.6193C91.6937 61.6928 91.5949 61.7663 91.4955 61.8399C83.7641 67.4627 75.0726 71.8631 66.2231 75.6191C66.077 75.6803 65.9311 75.7411 65.7855 75.8014C52.0716 81.5582 37.2469 83.9227 22.3794 84.7614C22.1744 84.7742 21.97 84.7888 21.7661 84.8052L21.7921 84.8038C19.3789 84.9537 16.9662 85.3416 14.5478 85.6432C12.6923 85.8712 10.8193 86.064 8.97271 85.9986C8.75935 85.9896 8.53255 85.9783 8.33116 85.9598C8.27021 85.954 8.22419 85.9489 8.17633 85.9417C8.1578 85.9389 8.13249 85.9341 8.1275 85.9327C8.1246 85.9322 8.12481 85.9312 8.14448 85.9388C8.15473 85.944 8.16391 85.9432 8.21786 85.9796C8.25339 86.0239 8.39817 86.0544 8.38962 86.3868C8.31104 86.6747 8.24282 86.6349 8.21812 86.6728C8.18801 86.6938 8.16922 86.7014 8.16606 86.7031C8.15378 86.7085 8.15356 86.7079 8.15847 86.7065C8.16474 86.7043 8.19099 86.6974 8.20932 86.6934C8.25495 86.683 8.30533 86.6735 8.36193 86.6639C8.57701 86.6277 8.81523 86.5984 9.0476 86.5714C9.5152 86.5178 9.98903 86.4724 10.4644 86.4285C11.4119 86.3416 12.3644 86.2629 13.3168 86.1834C13.4345 86.1736 13.5435 86.1175 13.6198 86.0273C13.6961 85.9371 13.7334 85.8204 13.7236 85.7027C13.7138 85.585 13.6576 85.476 13.5675 85.3997C13.4773 85.3234 13.3605 85.2861 13.2428 85.2959C13.2428 85.2959 13.2428 85.2959 13.2428 85.2959C12.2903 85.3754 11.3366 85.4542 10.3828 85.5416C9.90384 85.5859 9.42641 85.6315 8.94556 85.6866C8.705 85.7147 8.46195 85.744 8.21235 85.7859C8.14515 85.7974 8.08412 85.8085 8.01094 85.8251C7.98165 85.8317 7.93109 85.8442 7.89156 85.8568C7.86458 85.8653 7.83349 85.876 7.79847 85.8918C7.78729 85.8969 7.74535 85.9161 7.70501 85.9448C7.66931 85.9912 7.58994 85.9586 7.50758 86.2634C7.49814 86.6126 7.65165 86.6499 7.69961 86.704C7.7682 86.7507 7.79156 86.7557 7.81292 86.7654C7.85399 86.7821 7.90031 86.7941 7.91655 86.798C7.96115 86.8089 8.01053 86.8173 8.0414 86.822C8.11959 86.8337 8.1751 86.8395 8.24803 86.8465C8.48178 86.8679 8.71413 86.879 8.93572 86.8885C10.8244 86.9552 12.6918 87.113 14.5705 87.2963C17.013 87.5302 19.469 87.779 21.9155 87.7243L21.9415 87.723C22.1479 87.7147 22.3545 87.7042 22.5615 87.6913C37.5936 86.8472 52.7832 84.0777 66.7373 78.069C66.8848 78.0063 67.0327 77.9432 67.1808 77.8797C76.1526 73.9785 84.8658 69.4638 92.8448 63.6624C92.9475 63.5863 93.0497 63.5102 93.1512 63.4342C98.5734 59.3815 103.658 54.3173 106.425 47.8505C106.466 47.7562 106.506 47.6619 106.546 47.5676C108.538 42.8305 109.4 37.5545 108.619 32.3852C108.606 32.3025 108.593 32.2197 108.58 32.1369C108.024 28.0103 105.964 22.7619 101.157 21.2467C101.074 21.2174 100.991 21.1881 100.908 21.1589C89.0315 16.8803 75.4814 15.2384 63.2043 19.5818C63.1397 19.604 63.0751 19.6262 63.0105 19.6485C48.5433 24.8023 33.9972 30.2448 21.2795 39.4473C21.2667 39.4572 21.2539 39.4671 21.2411 39.4771C20.9852 39.6757 20.7359 39.8705 20.4827 40.0699C17.3349 42.5879 14.1575 45.1463 11.5747 48.504Z" fill="white"/>
<path d="M82.7807 93.9834C82.6488 94.0964 82.5673 94.2571 82.554 94.4303C82.5406 94.6034 82.5967 94.7748 82.7097 94.9066C82.8227 95.0385 82.9835 95.12 83.1566 95.1334C83.3298 95.1467 83.5011 95.0907 83.633 94.9777C83.633 94.9777 83.633 94.9777 83.633 94.9777C85.5185 93.3514 87.3161 91.5668 88.697 89.4037C89.4839 88.1549 90.1288 86.7537 90.3402 85.2141C90.3415 85.2046 90.3428 85.1951 90.3441 85.1857C90.7251 83.2683 88.9509 81.2511 87.0634 81.174C87.0488 81.1726 87.0341 81.1713 87.0194 81.17C80.9982 80.8943 76.6945 85.0981 73.0547 88.6699C73.0518 88.6729 73.0489 88.6758 73.0461 88.6788C66.1633 95.5113 63.9908 105.85 65.085 115.109C65.0917 115.172 65.099 115.235 65.1071 115.298C65.3599 117.844 67.2664 120.05 69.267 121.163C69.3222 121.196 69.3776 121.228 69.4335 121.26C71.529 122.505 74.1669 122.444 76.2251 121.878C76.2737 121.865 76.3222 121.852 76.3707 121.839C83.7037 119.725 88.1794 113.327 91.1531 107.161C91.1675 107.131 91.1819 107.1 91.1962 107.07C93.8431 101.442 94.9981 95.1743 94.9368 89.0612H92.137C92.1368 89.1026 92.137 89.1449 92.1374 89.1881C92.8667 98.8643 94.5183 107.923 96.2344 117.193L96.2396 117.219C96.2412 117.227 96.2429 117.235 96.2446 117.243C96.3452 117.722 96.4497 118.2 96.5584 118.675C97.0864 121.081 97.8792 123.56 98.6041 125.796C98.7049 126.125 98.9234 126.41 99.2231 126.586C99.5228 126.761 99.8772 126.813 100.211 126.729C100.544 126.645 100.832 126.431 101.013 126.135C101.194 125.839 101.251 125.484 101.184 125.146C101.184 125.146 101.184 125.146 101.184 125.146C100.641 122.643 100.06 120.404 99.5738 118.011C99.4753 117.545 99.3768 117.076 99.2781 116.606C99.2764 116.598 99.2748 116.59 99.2731 116.583L99.2783 116.608C97.5776 107.482 95.6975 98.1452 94.9379 89.15C94.9373 89.1185 94.937 89.0889 94.9368 89.0612H92.137C92.2436 94.8984 91.2114 100.706 88.7612 105.927C88.748 105.956 88.7347 105.984 88.7214 106.012C85.949 111.846 81.6718 117.573 75.6711 119.243C75.6313 119.253 75.5914 119.264 75.5516 119.274C73.7918 119.738 72.1258 119.753 70.7289 118.95C70.6906 118.928 70.6523 118.907 70.614 118.884C68.9989 117.956 67.9079 116.628 67.6929 114.951C67.6869 114.909 67.6813 114.866 67.6762 114.823C66.5429 106.03 68.3478 96.569 74.5979 90.1759C74.6005 90.1731 74.6031 90.1703 74.6057 90.1676C78.0333 86.6273 82.2195 82.9262 86.8557 83.1735C86.8647 83.1742 86.8737 83.1749 86.8827 83.1756C87.9615 83.2168 89.1786 83.8084 89.0457 85.0143C89.0447 85.0221 89.0436 85.03 89.0426 85.0379C88.8687 86.3176 88.3121 87.5608 87.5898 88.7043C86.3261 90.6882 84.6071 92.4109 82.7807 93.9834Z" fill="white"/>
<path d="M118.617 75.2322C118.57 74.903 118.394 74.6059 118.128 74.4064C117.862 74.2069 117.527 74.1212 117.198 74.1682C116.869 74.2152 116.572 74.3911 116.372 74.6572C116.173 74.9232 116.087 75.2576 116.134 75.5868C116.237 76.3029 116.336 77.0106 116.431 77.7229C116.8 80.5322 117.121 83.3585 117.445 86.1971C117.445 86.1976 117.445 86.1982 117.445 86.1987C118.55 96.3012 120.107 106.445 122.583 116.344C122.759 117.049 122.938 117.75 123.123 118.455C123.165 118.612 123.264 118.749 123.402 118.836C123.541 118.923 123.707 118.952 123.865 118.917C124.024 118.882 124.162 118.785 124.251 118.647C124.34 118.51 124.371 118.344 124.342 118.184C124.342 118.184 124.342 118.184 124.342 118.184C124.212 117.471 124.086 116.763 123.962 116.052C122.216 106.063 121.041 96.008 119.937 85.9163C119.937 85.9158 119.937 85.9152 119.936 85.9147C119.612 83.0693 119.291 80.242 118.917 77.3932C118.821 76.6711 118.72 75.9482 118.617 75.2322Z" fill="white"/>
<path d="M103.119 78.5096C102.887 78.708 102.744 78.9904 102.72 79.2944C102.697 79.5985 102.795 79.8994 102.994 80.131C103.192 80.3625 103.475 80.5058 103.779 80.5291C104.083 80.5525 104.384 80.4542 104.615 80.2557C104.615 80.2557 104.615 80.2557 104.615 80.2557C106.177 78.9271 107.981 77.7618 109.815 76.6807C115.395 73.4369 121.414 70.8511 127.495 68.4893C127.54 68.4719 127.585 68.4544 127.63 68.437C136.004 65.2112 145.041 63.5418 153.961 64.1945C154.042 64.2006 154.121 64.2065 154.2 64.2123C155.826 64.3267 157.462 64.8727 158.754 65.9239C158.818 65.9756 158.881 66.0283 158.942 66.0815C159.825 66.8373 160.255 67.7907 160.134 68.8929C160.126 68.9741 160.115 69.056 160.102 69.1388C158.5 74.2985 152.107 77.7246 147.119 81.077C147.022 81.1377 146.926 81.1985 146.828 81.2595C136.216 87.9935 125.093 92.5834 112.209 94.7563C112.181 94.7694 112.154 94.7831 112.126 94.7976L111.85 94.9929C111.756 95.0882 111.659 95.1941 111.55 95.3954C111.447 95.5849 111.328 95.9489 111.427 96.336C111.526 96.7203 111.751 96.9292 111.896 97.0384C112.049 97.1502 112.175 97.2001 112.282 97.236C112.704 97.36 112.981 97.3164 113.264 97.2881C113.82 97.2164 114.311 97.0884 114.797 97.1175C114.8 97.1177 114.803 97.1179 114.806 97.1181C114.819 97.1188 114.831 97.1197 114.843 97.1206C117.028 97.2749 119.188 97.2484 121.349 97.254C121.452 97.254 121.551 97.213 121.624 97.1399C121.697 97.0668 121.738 96.9677 121.738 96.8644C121.738 96.761 121.697 96.6619 121.624 96.5888C121.551 96.5158 121.452 96.4747 121.349 96.4747C119.191 96.4695 117.028 96.4942 114.903 96.3436C114.891 96.3427 114.879 96.3417 114.867 96.3405C114.864 96.3402 114.861 96.3399 114.858 96.3396C114.393 96.2918 113.934 96.07 113.553 95.8181C113.372 95.6961 113.176 95.5452 113.168 95.4613C113.17 95.4444 113.191 95.4317 113.254 95.4666C113.311 95.4992 113.456 95.6095 113.53 95.876C113.602 96.1456 113.517 96.3876 113.473 96.4735C113.424 96.5696 113.403 96.589 113.398 96.5983L113.121 96.7936C113.131 96.7894 113.142 96.7847 113.153 96.7796C125.011 94.9713 137.433 89.7901 147.917 82.9887C148.015 82.9266 148.113 82.8646 148.21 82.8028C153.276 79.1837 159.642 76.5564 162.058 69.4509C162.077 69.3308 162.093 69.2101 162.105 69.0884C162.334 67.4299 161.491 65.5875 160.262 64.578C160.186 64.5102 160.108 64.4431 160.029 64.3775C158.446 63.0572 156.471 62.1397 154.38 61.9654C154.298 61.9584 154.215 61.9516 154.131 61.9451C144.812 61.2466 135.45 62.9618 126.804 66.2909C126.758 66.3085 126.712 66.3261 126.667 66.3437C120.513 68.7358 114.425 71.3427 108.65 74.6976C106.746 75.8228 104.865 77.0268 103.119 78.5096Z" fill="white"/>
<path d="M179.749 73.5462C180.098 73.442 180.391 73.2035 180.564 72.8832C180.737 72.5629 180.776 72.187 180.671 71.8382C180.567 71.4894 180.329 71.1962 180.008 71.0233C179.688 70.8503 179.312 70.8117 178.963 70.9159C178.963 70.9159 178.963 70.9159 178.963 70.9159C176.619 71.6169 174.366 72.578 172.226 73.7033C163.132 78.5934 155.608 86.0965 150.665 95.1517C150.648 95.1831 150.632 95.2145 150.615 95.246C147.618 100.779 147.334 107.443 148.956 113.345C148.963 113.371 148.97 113.396 148.977 113.421C149.688 115.997 152.108 117.168 153.897 117.699C153.927 117.708 153.956 117.717 153.986 117.726C159.697 119.218 164.55 116.031 168.252 113.047C168.278 113.025 168.303 113.004 168.329 112.982C176.855 105.617 179.012 94.3186 180.651 84.4763L177.521 83.8801C177.512 83.9257 177.504 83.9717 177.495 84.0179C176.118 92.1181 175.518 100.2 175.988 108.422L176.001 108.544C176.003 108.562 176.006 108.579 176.009 108.597C176.244 110.186 176.718 111.802 177.391 113.275C178.427 115.547 179.773 117.507 181.033 119.506C181.142 119.676 181.32 119.799 181.521 119.851C181.723 119.902 181.933 119.877 182.109 119.779C182.286 119.682 182.417 119.517 182.481 119.318C182.544 119.12 182.534 118.904 182.447 118.722C182.447 118.722 182.447 118.722 182.447 118.722C181.444 116.607 180.513 114.454 179.875 112.336C179.459 110.957 179.2 109.59 179 108.157C178.998 108.141 178.995 108.125 178.993 108.11L179.006 108.232C178.627 100.401 179.273 92.3391 180.626 84.606C180.635 84.5624 180.643 84.5192 180.651 84.4763L177.521 83.8801C175.872 93.8206 173.554 104.193 166.219 110.465C166.196 110.485 166.173 110.504 166.15 110.523C162.806 113.31 158.543 115.696 154.88 114.654C154.857 114.647 154.835 114.64 154.812 114.634C153.334 114.211 152.216 113.496 151.974 112.569C151.968 112.547 151.961 112.524 151.954 112.501C150.393 107.226 150.432 101.358 153.038 96.5359C153.054 96.5064 153.07 96.4769 153.085 96.4474C157.716 87.9347 164.965 80.7089 173.505 76.1327C175.51 75.078 177.605 74.187 179.749 73.5462Z" fill="white"/>
<path d="M222.963 69.0525C222.963 68.657 222.805 68.2777 222.526 67.9981C222.246 67.7184 221.867 67.5613 221.471 67.5613C221.076 67.5613 220.697 67.7184 220.417 67.9981C220.137 68.2777 219.98 68.657 219.98 69.0525C219.981 70.6831 220.001 72.3208 220.021 73.9443C220.145 82.6499 220.299 91.3445 220.377 100.037C220.377 100.054 220.377 100.071 220.378 100.089C220.459 108.639 216.109 116.673 211.739 124.339C211.73 124.354 211.721 124.37 211.712 124.386C209.655 128.069 206.283 130.687 202.126 131.424C202.122 131.425 202.117 131.426 202.113 131.427C201.603 131.569 200.654 131.247 200.05 130.389L200.178 130.672C200.175 130.663 200.172 130.654 200.168 130.645C198.722 126.668 198.445 122.065 198.507 117.6L198.503 117.635C198.504 117.631 198.504 117.627 198.504 117.623C198.605 116.529 198.777 115.434 198.989 114.343C199.298 112.756 199.691 111.177 200.078 109.597C200.082 109.581 200.079 109.564 200.071 109.55C200.063 109.535 200.05 109.524 200.034 109.52C200.019 109.515 200.002 109.517 199.987 109.524C199.972 109.532 199.96 109.545 199.955 109.56C199.955 109.56 199.955 109.56 199.955 109.56C199.409 111.093 198.865 112.627 198.393 114.196C198.068 115.273 197.778 116.367 197.551 117.482C197.55 117.486 197.549 117.49 197.549 117.494L197.545 117.529C197 122.048 196.646 126.666 197.757 131.394C197.759 131.405 197.762 131.416 197.765 131.427L197.893 131.709C198.675 133.17 200.385 134.747 202.666 134.355C202.682 134.352 202.698 134.348 202.715 134.345C207.552 133.574 212.046 130.164 214.353 125.904C214.362 125.889 214.371 125.873 214.38 125.857C218.768 118.112 223.416 109.675 223.36 100.061C223.36 100.043 223.36 100.026 223.359 100.009C223.281 91.3056 223.126 82.5927 223.003 73.9055C222.983 72.2877 222.963 70.6545 222.963 69.0525Z" fill="white"/>
<path d="M205.43 71.0695C205.544 70.6874 205.501 70.2759 205.311 69.9254C205.121 69.575 204.799 69.3144 204.417 69.201C204.035 69.0876 203.624 69.1306 203.273 69.3205C202.923 69.5105 202.662 69.8319 202.549 70.2141C202.549 70.2141 202.549 70.2141 202.549 70.2141C202.241 71.2519 201.979 72.2951 201.747 73.3412C199.942 81.9638 199.599 90.7746 200.892 99.505C200.896 99.5297 200.9 99.5543 200.904 99.5789C201.733 105.274 206.798 109.091 211.762 110.432C211.78 110.437 211.797 110.442 211.814 110.446C214.513 111.038 216.598 109.925 218.339 108.772C218.354 108.762 218.368 108.752 218.383 108.741C220.266 107.52 220.465 104.908 220.359 103.252C220.359 103.246 220.359 103.239 220.359 103.233C220.345 101.469 219.953 99.8148 219.558 98.1789C219.306 97.1608 219.03 96.1533 218.756 95.1487C218.723 95.0258 218.642 94.9212 218.531 94.858C218.421 94.7947 218.289 94.7781 218.166 94.8116C218.044 94.8451 217.939 94.9261 217.876 95.0367C217.813 95.1474 217.796 95.2786 217.829 95.4015C217.829 95.4015 217.829 95.4015 217.829 95.4015C218.103 96.4061 218.377 97.4076 218.626 98.4101C219.016 100.015 219.388 101.644 219.398 103.23C219.398 103.235 219.398 103.241 219.398 103.246C219.394 104.054 219.051 104.832 218.56 105.337C218.066 105.853 217.49 106.098 216.902 106.419C216.892 106.425 216.882 106.43 216.872 106.436C215.423 107.229 213.676 107.694 212.607 107.395C212.6 107.393 212.593 107.391 212.586 107.39C208.409 106.253 204.447 103.268 203.873 99.1083C203.869 99.085 203.865 99.0617 203.862 99.0384C202.629 90.7876 202.964 82.1594 204.683 73.9895C204.901 73.0022 205.147 72.0246 205.43 71.0695Z" fill="white"/>
<path d="M247.409 67.7479C247.696 68.0342 248.084 68.195 248.489 68.195C248.893 68.195 249.282 68.0342 249.568 67.748C249.854 67.4617 250.015 67.0735 250.015 66.6687C250.015 66.2638 249.854 65.8756 249.568 65.5894C249.568 65.5894 249.568 65.5894 249.568 65.5894C249.186 65.2148 248.754 64.7464 248.063 64.3212C247.394 63.8835 246.293 63.6404 245.434 63.8468C245.426 63.8484 245.418 63.8501 245.41 63.8518C244.001 64.1442 242.679 64.766 241.553 65.5742C231.772 74.8561 231.293 87.801 231.047 99.7218C231.058 99.9374 231.08 100.151 231.115 100.366C231.43 102.416 232.795 103.99 234.091 104.97C234.243 105.087 234.403 105.198 234.569 105.302C236.352 106.415 238.33 106.324 239.828 106.121C239.952 106.104 240.078 106.085 240.202 106.065C242.776 105.628 245.225 104.682 247.393 103.079C247.463 103.026 247.533 102.974 247.602 102.92C257.378 94.3708 256.035 80.9476 256.718 70.9791L253.46 70.7603C253.477 70.9814 253.494 71.2025 253.512 71.4234C254.545 83.8787 255.503 96.2996 257.358 108.787C257.476 109.458 257.604 110.153 257.789 110.863L257.798 110.896C257.805 110.919 257.812 110.943 257.82 110.967C258.286 112.523 259.085 113.975 259.799 115.384C259.871 115.528 260.003 115.641 260.159 115.7C260.316 115.759 260.483 115.761 260.632 115.701C260.781 115.642 260.902 115.525 260.974 115.374C261.046 115.223 261.064 115.051 261.017 114.897C261.017 114.897 261.017 114.897 261.017 114.897C260.545 113.38 260.234 111.87 259.842 110.387C259.836 110.365 259.83 110.342 259.824 110.319L259.832 110.352C259.699 109.767 259.595 109.092 259.506 108.451C258.104 96.1731 257.66 83.6207 256.792 71.1866C256.777 70.9656 256.763 70.7445 256.748 70.5232L253.49 70.3045C252.716 81.5831 253.243 93.5609 245.438 100.105C245.385 100.145 245.331 100.185 245.277 100.225C243.689 101.384 241.651 102.108 239.637 102.405C239.541 102.419 239.445 102.432 239.35 102.443C238.137 102.592 237.155 102.498 236.561 102.103C236.497 102.064 236.434 102.021 236.37 101.973C235.436 101.281 234.826 100.548 234.694 99.7729C234.679 99.6878 234.668 99.6023 234.662 99.5137C234.516 88.6187 235.57 75.1942 243.338 68.0621C244.167 67.4622 245.075 67.0403 246.037 66.8394C246.039 66.839 246.041 66.8386 246.042 66.8383C246.232 66.8129 246.25 66.807 246.487 66.9354C246.712 67.0669 247.036 67.3704 247.409 67.7479Z" fill="white"/>
</g>
<defs>
<clipPath id="clip0_39_401">
<rect width="268" height="140" fill="white"/>
</clipPath>
</defs>
</svg>
