<svg width="268" height="140" viewBox="0 0 268 140" fill="none" xmlns="http://www.w3.org/2000/svg">
<path d="M55.582 53.5662C55.582 53.9423 55.7314 54.3029 55.9973 54.5688C56.2633 54.8348 56.6239 54.9842 57 54.9842C57.3761 54.9842 57.7367 54.8348 58.0027 54.5688C58.2686 54.3029 58.418 53.9423 58.418 53.5662C58.418 53.4384 58.418 53.3156 58.4209 53.2245C58.4217 53.1833 58.4263 53.1353 58.4228 53.1687C58.4212 53.1797 58.4198 53.195 58.41 53.2407C58.3892 53.2985 58.4189 53.3223 58.2555 53.624C58.1995 53.7113 58.1443 53.8104 57.9554 53.9738C57.8105 54.1119 57.3867 54.3243 57.0139 54.2977C56.6151 54.2766 56.4171 54.1493 56.2714 54.0565C56.1505 53.9733 56.0837 53.9046 56.0349 53.8524C55.8685 53.6593 55.8743 53.6301 55.846 53.5855C55.8183 53.5311 55.816 53.5209 55.816 53.5218C56.5513 55.7048 57.3134 58.1801 58.0751 60.5008C58.3657 61.3868 58.6628 62.2721 58.9726 63.1554C58.975 63.1622 58.9773 63.1689 58.9797 63.1756C62.957 74.5009 67.0035 85.8126 70.9137 97.1478C70.9523 97.2602 70.9905 97.3715 71.0282 97.4818C73.2142 103.653 74.5663 109.477 76.748 116.211C76.8405 116.407 76.9556 116.632 77.1205 116.872C77.22 117.015 77.3391 117.161 77.55 117.322C77.7641 117.485 78.065 117.625 78.3816 117.67C79.0541 117.755 79.438 117.524 79.646 117.408C80.0706 117.132 80.1739 116.961 80.31 116.803C80.5464 116.496 80.6585 116.288 80.7855 116.058C81.016 115.626 81.1943 115.216 81.3543 114.829C81.6797 114.036 81.9471 113.275 82.206 112.502C82.7199 110.96 83.1723 109.419 83.6 107.896C84.4566 104.834 85.2324 101.75 85.9739 98.6761C86.0006 98.5651 86.0274 98.4534 86.0543 98.3411C90.856 77.9238 94.1864 57.2303 98.5529 36.744C98.6162 36.4458 98.6784 36.1529 98.7394 35.8654C99.1802 33.7889 99.6208 31.714 100.059 29.6526C100.346 28.3046 100.63 26.9671 100.918 25.6205C101.06 24.9536 101.204 24.2791 101.348 23.6064C101.42 23.2714 101.49 22.9439 101.564 22.603C101.582 22.5212 101.602 22.4306 101.618 22.3576C101.629 22.3068 101.635 22.2798 101.646 22.2322C101.65 22.2124 101.654 22.1946 101.658 22.1811C101.657 22.1818 101.661 22.1695 101.655 22.1903C101.648 22.208 101.665 22.1879 101.605 22.315C101.571 22.3554 101.601 22.4108 101.343 22.5901C101.223 22.6855 100.821 22.7354 100.607 22.5579C100.399 22.3994 100.377 22.2735 100.35 22.2077C100.292 21.9575 100.324 22.0217 100.318 21.9792C100.322 21.9068 100.324 21.9136 100.324 21.9041C100.326 21.8945 100.324 21.9068 100.322 21.9148C100.293 22.0711 100.257 22.2443 100.224 22.4122C100.188 22.5897 100.224 22.774 100.325 22.9248C100.425 23.0755 100.581 23.1802 100.758 23.2159C100.936 23.2516 101.12 23.2153 101.271 23.115C101.422 23.0147 101.526 22.8586 101.562 22.6812C101.562 22.6812 101.562 22.6812 101.562 22.6812C101.596 22.5098 101.629 22.3503 101.665 22.1637C101.668 22.1451 101.667 22.1524 101.674 22.1096C101.676 22.094 101.678 22.0966 101.682 22.0222C101.676 21.9792 101.708 22.043 101.65 21.7925C101.623 21.7266 101.601 21.6007 101.393 21.4421C101.179 21.2646 100.777 21.3145 100.657 21.4099C100.398 21.5893 100.429 21.6448 100.394 21.6854C100.334 21.8136 100.35 21.7961 100.342 21.8181C100.33 21.8592 100.335 21.8445 100.332 21.8569C100.323 21.8912 100.32 21.9063 100.314 21.9303C100.302 21.9836 100.296 22.0109 100.285 22.0635C100.268 22.1388 100.248 22.2305 100.23 22.313C100.155 22.6568 100.085 22.9845 100.013 23.3201C99.8687 23.9938 99.7246 24.6686 99.5823 25.3357C99.295 26.6828 99.0104 28.0205 98.7238 29.3686C98.2854 31.4303 97.8448 33.5053 97.4039 35.5819C97.3429 35.8694 97.2807 36.1623 97.2174 36.4605C92.8528 56.9392 87.5966 77.2485 82.7736 97.5515C82.7467 97.6629 82.7199 97.7736 82.6932 97.8837C81.9542 100.931 81.184 103.985 80.3447 106.983C79.9264 108.472 79.4844 109.975 78.9991 111.431C78.756 112.158 78.5046 112.868 78.2282 113.542C78.0951 113.865 77.9446 114.202 77.8078 114.456C77.7398 114.585 77.6658 114.698 77.6541 114.711C77.6642 114.71 77.6371 114.687 77.8943 114.516C78.022 114.448 78.3083 114.256 78.8809 114.327C79.1489 114.365 79.4053 114.485 79.5788 114.618C79.7499 114.748 79.8384 114.86 79.9073 114.958C79.8935 114.939 79.8515 114.867 79.8099 114.777C78.0538 109.203 76.1681 102.488 74.0213 96.4546C73.9832 96.3439 73.9447 96.2321 73.9059 96.1192C69.9787 84.753 65.9321 73.444 61.9542 62.1317C61.9518 62.125 61.9495 62.1183 61.9471 62.1116C61.6376 61.2301 61.3185 60.3547 60.9961 59.4825C60.1317 57.1476 59.296 54.9551 58.4518 52.4753C58.4352 52.4343 58.4128 52.376 58.364 52.2808C58.3196 52.2058 58.311 52.1508 58.1225 51.9328C58.068 51.8745 57.9951 51.8002 57.868 51.7127C57.7149 51.615 57.5103 51.4846 57.1031 51.4632C56.7226 51.4361 56.2901 51.6523 56.1398 51.7952C55.9444 51.9642 55.885 52.0692 55.8244 52.1637C55.6447 52.4939 55.6669 52.5486 55.6389 52.638C55.6222 52.7161 55.616 52.7624 55.6102 52.8053C55.5907 52.9664 55.5898 53.0481 55.5864 53.135C55.5814 53.3014 55.5822 53.4363 55.582 53.5662Z" fill="white"/>
<path d="M104.438 76C104.438 75.6185 104.287 75.2526 104.017 74.9828C103.747 74.7131 103.382 74.5615 103 74.5615C102.618 74.5615 102.253 74.7131 101.983 74.9828C101.713 75.2526 101.562 75.6185 101.562 76C101.563 76.6919 101.578 77.3609 101.592 78.034C101.76 84.824 102.052 91.5785 102.373 98.3476L102.375 98.3813C102.376 98.3894 102.376 98.3975 102.377 98.4055C102.582 101.657 103.065 104.994 103.408 108.087C103.408 108.091 103.409 108.094 103.409 108.098C103.6 110.039 103.737 111.918 103.727 113.879C103.724 114.524 103.709 115.177 103.682 115.839C103.674 116.019 103.717 116.203 103.82 116.355C103.923 116.507 104.075 116.614 104.249 116.653C104.422 116.693 104.606 116.662 104.764 116.569C104.923 116.476 105.04 116.328 105.111 116.161C105.111 116.161 105.111 116.161 105.111 116.161C105.379 115.517 105.61 114.855 105.799 114.177C106.379 112.122 106.518 109.913 106.308 107.819C106.307 107.815 106.307 107.811 106.307 107.807C105.935 104.473 105.451 101.408 105.246 98.1993C105.246 98.1914 105.245 98.1835 105.245 98.1756L105.247 98.2094C104.926 91.4589 104.635 84.7036 104.468 77.9697C104.454 77.3084 104.44 76.6347 104.438 76Z" fill="white"/>
<path d="M107.056 61.8652C107.281 61.8652 107.497 61.7757 107.657 61.6163C107.816 61.457 107.905 61.2409 107.905 61.0156C107.905 60.7903 107.816 60.5742 107.657 60.4148C107.497 60.2555 107.281 60.166 107.056 60.166C106.221 60.2293 105.805 60.3917 105.231 60.5485C104.44 60.7849 103.68 61.0613 102.929 61.3625C102.875 61.3839 102.822 61.4056 102.767 61.4276C101.51 61.942 100.74 63.0502 100.335 64.1406C100.33 64.1539 100.325 64.1672 100.32 64.1804C100.003 64.9148 100.102 66.2071 100.922 66.847C100.963 66.8818 101.004 66.9157 101.045 66.9486C103.101 68.4192 105.336 67.7894 107.14 67.287C108.993 66.7028 110.696 65.8775 112.34 64.9177C112.376 64.8968 112.41 64.8755 112.445 64.8537C113.269 64.4204 113.998 63.1586 113.778 62.1463C113.763 62.0365 113.742 61.9287 113.715 61.823C113.417 60.6127 112.302 59.8693 111.315 59.6441C111.186 59.611 111.055 59.5831 110.927 59.56C109.083 59.289 107.465 59.7651 105.865 60.1881C105.34 60.3373 104.817 60.4993 104.298 60.67C104.21 60.6991 104.136 60.7631 104.092 60.8464C104.049 60.9299 104.039 61.0258 104.065 61.1147C104.091 61.2036 104.152 61.2786 104.234 61.3249C104.316 61.3711 104.412 61.3847 104.502 61.3611C104.502 61.3611 104.502 61.3611 104.502 61.3611C105.023 61.2243 105.545 61.0948 106.066 60.9786C107.628 60.644 109.289 60.3205 110.692 60.6542C110.788 60.6791 110.882 60.7096 110.971 60.7448C111.684 61.0183 112.094 61.6112 112.178 62.1708C112.186 62.2208 112.192 62.2704 112.194 62.3189C112.214 62.8436 112.037 63.1003 111.544 63.4266C111.524 63.4396 111.503 63.4524 111.481 63.4654C108.542 65.1172 104.476 67.1247 102.09 65.6312C102.068 65.6134 102.046 65.5951 102.024 65.5762C101.83 65.3938 101.798 65.1899 101.941 64.7637C101.945 64.7545 101.948 64.7452 101.951 64.7359C102.242 63.9439 102.76 63.2578 103.409 63.0014C103.46 62.9803 103.511 62.9596 103.562 62.9393C104.275 62.6535 104.994 62.3929 105.716 62.177C105.963 62.1034 106.211 62.0351 106.454 61.9774C106.676 61.922 107.001 61.8646 107.056 61.8652Z" fill="white"/>
<path d="M130.099 77.1987C129.857 76.9074 129.509 76.7241 129.132 76.6892C128.754 76.6543 128.379 76.7707 128.087 77.0127C127.796 77.2547 127.613 77.6026 127.578 77.9798C127.543 78.3569 127.659 78.7325 127.901 79.0239C127.901 79.0239 127.901 79.0239 127.901 79.0239C128.927 80.351 129.868 82.3053 130.732 84.1099C134.274 91.7959 137.273 99.8798 139.616 108.016C139.617 108.021 139.618 108.025 139.62 108.03C140.622 111.429 140.938 114.813 142.398 118.54C142.403 118.552 142.409 118.564 142.414 118.576C142.514 118.728 142.474 118.924 143.108 119.384C143.397 119.604 144.115 119.709 144.457 119.579C144.639 119.529 144.788 119.456 144.905 119.384C144.998 119.327 145.065 119.275 145.127 119.223C145.535 118.841 145.534 118.731 145.623 118.6C145.756 118.358 145.818 118.201 145.887 118.037C146.015 117.721 146.117 117.429 146.213 117.147C146.406 116.577 146.575 116.03 146.742 115.474C147.075 114.362 147.38 113.279 147.688 112.172C148.3 109.964 148.88 107.798 149.483 105.585C149.498 105.53 149.513 105.474 149.528 105.419C153.85 89.5572 158.135 73.6703 162.508 57.8465C162.511 57.8352 162.514 57.824 162.517 57.8128C163.582 53.9789 164.624 50.167 165.727 46.371C166.032 45.3129 166.334 44.3655 166.672 43.2016C166.672 43.2002 166.673 43.1988 166.673 43.1974C166.966 42.0141 166.368 41.2085 166.452 40.1883C166.458 40.0901 166.419 39.9772 166.36 39.8814C166.3 39.7852 166.225 39.714 166.135 39.6763C166.045 39.6387 165.941 39.6357 165.831 39.6609C165.722 39.6865 165.614 39.7382 165.548 39.8117C165.548 39.8117 165.548 39.8117 165.548 39.8117C164.831 40.5774 164.009 41.7263 163.817 42.4228C163.817 42.4237 163.817 42.4247 163.816 42.4257C163.537 43.3521 163.166 44.4862 162.857 45.515C161.697 49.3402 160.61 53.142 159.537 56.9841C159.533 56.9953 159.53 57.0065 159.527 57.0178C155.128 72.8562 150.835 88.7383 146.493 104.589C146.478 104.645 146.462 104.7 146.447 104.755C145.842 106.961 145.232 109.111 144.594 111.29C144.275 112.381 143.958 113.448 143.624 114.521C143.458 115.055 143.29 115.58 143.116 116.087C143.03 116.334 142.938 116.59 142.854 116.794C142.814 116.893 142.765 116.994 142.76 117.001C142.781 116.989 142.704 117.01 143.008 116.72C143.056 116.68 143.11 116.638 143.189 116.589C143.29 116.527 143.421 116.462 143.588 116.416C143.898 116.296 144.575 116.395 144.836 116.596C145.409 117.016 145.338 117.15 145.406 117.233C145.402 117.225 145.399 117.216 145.395 117.208C144.249 114.328 143.363 110.666 142.37 107.26C142.369 107.255 142.368 107.251 142.366 107.246C139.957 98.8883 136.957 90.8007 133.315 82.8909C132.379 80.9752 131.584 79.1496 130.099 77.1987Z" fill="white"/>
<path d="M190.88 77.5066C191.131 77.3699 191.316 77.1394 191.397 76.8658C191.477 76.5922 191.445 76.2979 191.309 76.0476C191.172 75.7974 190.942 75.6116 190.668 75.5313C190.394 75.451 190.1 75.4827 189.85 75.6194C187.36 76.9909 185.236 78.8139 183.312 80.7761C180.114 84.0659 177.468 87.794 175.131 91.6643C175.115 91.6901 175.1 91.716 175.084 91.7418C172.062 97.0906 169.116 103.553 172.264 110.301C172.301 110.357 172.339 110.411 172.378 110.465C175.842 113.954 179.813 113.1 183.32 113.159C186.901 112.978 190.401 112.465 193.876 111.845C193.909 111.839 193.941 111.834 193.973 111.828C202.175 110.45 207.647 103.196 210.401 96.1981C210.415 96.1641 210.428 96.13 210.442 96.0957C212.164 91.0446 210.719 86.1868 208.998 81.7992C208.996 81.7959 208.995 81.7927 208.994 81.7894C207.463 77.922 204.04 74.8117 200.243 73.358C200.232 73.3536 200.221 73.3492 200.21 73.3448C195.559 71.4115 190.368 71.5252 185.67 72.4956C185.668 72.4959 185.667 72.4963 185.665 72.4966C178.82 73.9702 172.7 77.2938 166.853 80.7923C166.843 80.7986 166.833 80.8049 166.822 80.8112C164.162 82.4326 161.68 84.343 159.393 86.4478C157.403 88.2705 155.554 90.2272 153.717 92.1767C153.646 92.2519 153.607 92.3521 153.611 92.4554C153.614 92.5587 153.657 92.6566 153.733 92.7275C153.808 92.7984 153.908 92.8365 154.011 92.8335C154.115 92.8305 154.213 92.7865 154.283 92.7113C154.283 92.7113 154.283 92.7113 154.283 92.7113C156.121 90.7616 157.957 88.8206 159.919 87.0221C162.177 84.9452 164.613 83.0706 167.229 81.4761C167.239 81.4699 167.249 81.4637 167.259 81.4576C173.052 77.9947 179.693 76.1355 186.126 74.8066C186.127 74.8063 186.129 74.806 186.13 74.8057C190.592 73.9192 195.219 73.8658 199.309 75.5651C199.318 75.569 199.328 75.573 199.338 75.5769C202.72 76.9028 205.438 79.3921 206.786 82.7219C206.787 82.7248 206.788 82.7276 206.789 82.7304C208.419 86.7301 209.562 91.4549 208.205 95.213C208.195 95.2382 208.184 95.2632 208.174 95.2882C205.519 101.975 200.582 108.26 193.529 109.431C193.501 109.436 193.473 109.441 193.445 109.446C186.975 110.421 178.551 112.29 174.316 109.054C174.297 109.028 174.277 109 174.258 108.971C171.983 104.407 173.975 97.7406 176.928 92.849C176.943 92.8238 176.958 92.7987 176.973 92.7735C179.247 89.0054 181.817 85.3968 184.85 82.2784C186.671 80.419 188.669 78.7217 190.88 77.5066Z" fill="white"/>
</svg>
