<svg width="278" height="278" viewBox="0 0 278 278" fill="none" xmlns="http://www.w3.org/2000/svg">
<g filter="url(#filter0_dii_65_88)">
<path d="M273 139C273 213.006 213.006 273 139 273C64.9938 273 5 213.006 5 139C5 64.9938 64.9938 5 139 5C213.006 5 273 64.9938 273 139Z" fill="url(#paint0_radial_65_88)"/>
<path d="M139 8C211.349 8 270 66.6507 270 139C270 211.349 211.349 270 139 270C66.6507 270 8 211.349 8 139C8 66.6507 66.6507 8 139 8Z" stroke="#AB5BC7" stroke-width="6"/>
</g>
<defs>
<filter id="filter0_dii_65_88" x="0" y="-11" width="278" height="300" filterUnits="userSpaceOnUse" color-interpolation-filters="sRGB">
<feFlood flood-opacity="0" result="BackgroundImageFix"/>
<feColorMatrix in="SourceAlpha" type="matrix" values="0 0 0 0 0 0 0 0 0 0 0 0 0 0 0 0 0 0 127 0" result="hardAlpha"/>
<feOffset/>
<feGaussianBlur stdDeviation="2.5"/>
<feComposite in2="hardAlpha" operator="out"/>
<feColorMatrix type="matrix" values="0 0 0 0 0.97 0 0 0 0 0.0999999 0 0 0 0 1 0 0 0 0.81 0"/>
<feBlend mode="normal" in2="BackgroundImageFix" result="effect1_dropShadow_65_88"/>
<feBlend mode="normal" in="SourceGraphic" in2="effect1_dropShadow_65_88" result="shape"/>
<feColorMatrix in="SourceAlpha" type="matrix" values="0 0 0 0 0 0 0 0 0 0 0 0 0 0 0 0 0 0 127 0" result="hardAlpha"/>
<feOffset dy="16"/>
<feGaussianBlur stdDeviation="10"/>
<feComposite in2="hardAlpha" operator="arithmetic" k2="-1" k3="1"/>
<feColorMatrix type="matrix" values="0 0 0 0 0.670588 0 0 0 0 0.356863 0 0 0 0 0.780392 0 0 0 1 0"/>
<feBlend mode="normal" in2="shape" result="effect2_innerShadow_65_88"/>
<feColorMatrix in="SourceAlpha" type="matrix" values="0 0 0 0 0 0 0 0 0 0 0 0 0 0 0 0 0 0 127 0" result="hardAlpha"/>
<feOffset dy="-16"/>
<feGaussianBlur stdDeviation="10"/>
<feComposite in2="hardAlpha" operator="arithmetic" k2="-1" k3="1"/>
<feColorMatrix type="matrix" values="0 0 0 0 0.670588 0 0 0 0 0.356863 0 0 0 0 0.780392 0 0 0 1 0"/>
<feBlend mode="normal" in2="effect2_innerShadow_65_88" result="effect3_innerShadow_65_88"/>
</filter>
<radialGradient id="paint0_radial_65_88" cx="0" cy="0" r="1" gradientUnits="userSpaceOnUse" gradientTransform="translate(139 139.092) rotate(90) scale(134)">
<stop offset="0.139962" stop-color="#8406A0"/>
<stop offset="0.886213" stop-color="#040A10"/>
</radialGradient>
</defs>
</svg>
